<?xml version='1.0' encoding='UTF-8'?>
<svg width="3555" height="4141" xmlns="http://www.w3.org/2000/svg">
  <g id="cutline" stroke="magenta" fill="none" stroke_width="1">
    <path d="M 1493 3865 L 1493 3866 L 1492 3867 L 1492 3868 L 1491 3869 L 1491 3871 L 1490 3872 L 1490 3873 L 1489 3874 L 1489 3875 L 1488 3876 L 1488 3878 L 1487 3879 L 1487 3880 L 1486 3881 L 1486 3895 L 1485 3896 L 1485 3901 L 1486 3902 L 1486 3914 L 1487 3915 L 1487 3919 L 1488 3920 L 1488 3923 L 1489 3924 L 1489 3926 L 1490 3927 L 1490 3928 L 1492 3930 L 1492 3931 L 1493 3932 L 1494 3932 L 1495 3933 L 1496 3933 L 1497 3934 L 1504 3934 L 1505 3933 L 1506 3933 L 1513 3926 L 1513 3925 L 1515 3923 L 1515 3922 L 1517 3920 L 1517 3919 L 1518 3918 L 1518 3917 L 1519 3916 L 1519 3914 L 1520 3913 L 1520 3912 L 1521 3911 L 1521 3909 L 1522 3908 L 1522 3905 L 1523 3904 L 1523 3898 L 1524 3897 L 1524 3892 L 1523 3891 L 1523 3886 L 1522 3885 L 1522 3883 L 1521 3882 L 1521 3881 L 1520 3880 L 1520 3879 L 1519 3878 L 1519 3877 L 1516 3874 L 1516 3873 L 1515 3872 L 1514 3872 L 1511 3869 L 1510 3869 L 1509 3868 L 1508 3868 L 1507 3867 L 1505 3867 L 1504 3866 L 1501 3866 L 1500 3865 Z M 1741 3841 L 1741 3852 Z M 1464 3836 L 1463 3837 L 1442 3837 L 1442 3867 L 1443 3868 L 1443 3889 L 1444 3890 L 1444 3897 L 1444 3896 L 1445 3895 L 1445 3894 L 1446 3893 L 1446 3891 L 1447 3890 L 1447 3889 L 1448 3888 L 1448 3887 L 1449 3886 L 1449 3885 L 1450 3884 L 1450 3883 L 1451 3882 L 1451 3880 L 1452 3879 L 1452 3878 L 1453 3877 L 1453 3876 L 1454 3875 L 1454 3874 L 1455 3873 L 1455 3872 L 1456 3871 L 1456 3869 L 1457 3868 L 1457 3867 L 1458 3866 L 1458 3865 L 1459 3864 L 1459 3863 L 1460 3862 L 1460 3860 L 1461 3859 L 1461 3858 L 1462 3857 L 1462 3856 L 1463 3855 L 1463 3853 L 1464 3852 L 1464 3851 L 1465 3850 L 1465 3849 L 1466 3848 L 1466 3847 L 1467 3846 L 1467 3844 L 1468 3843 L 1468 3842 L 1469 3841 L 1469 3840 L 1470 3839 L 1470 3837 L 1471 3836 Z M 1530 3822 L 1529 3823 L 1528 3823 L 1527 3824 L 1525 3824 L 1524 3825 L 1522 3825 L 1521 3826 L 1519 3826 L 1518 3827 L 1516 3827 L 1515 3828 L 1513 3828 L 1512 3829 L 1509 3829 L 1508 3830 L 1508 3832 L 1507 3833 L 1507 3834 L 1506 3835 L 1506 3836 L 1505 3837 L 1505 3838 L 1504 3839 L 1504 3841 L 1503 3842 L 1503 3843 L 1502 3844 L 1502 3845 L 1501 3846 L 1501 3848 L 1502 3849 L 1507 3849 L 1508 3850 L 1510 3850 L 1511 3851 L 1513 3851 L 1514 3852 L 1515 3852 L 1516 3853 L 1517 3853 L 1518 3854 L 1519 3854 L 1520 3855 L 1521 3855 L 1524 3858 L 1525 3858 L 1528 3861 L 1531 3858 L 1531 3855 L 1530 3854 Z M 1535 3771 L 1535 3772 L 1534 3773 L 1534 3774 L 1533 3775 L 1533 3776 L 1532 3777 L 1532 3778 L 1531 3779 L 1531 3780 L 1530 3781 L 1530 3783 L 1529 3784 L 1529 3785 L 1528 3786 L 1528 3787 L 1527 3788 L 1527 3789 L 1526 3790 L 1526 3791 L 1525 3792 L 1525 3793 L 1524 3794 L 1524 3795 L 1523 3796 L 1523 3798 L 1522 3799 L 1522 3800 L 1521 3801 L 1521 3802 L 1520 3803 L 1520 3804 L 1519 3805 L 1519 3807 L 1518 3808 L 1518 3809 L 1519 3808 L 1521 3808 L 1522 3807 L 1523 3807 L 1524 3806 L 1525 3806 L 1526 3805 L 1528 3805 L 1529 3804 L 1530 3804 L 1531 3803 L 1531 3793 L 1532 3792 L 1532 3785 L 1533 3784 L 1533 3779 L 1534 3778 L 1534 3774 L 1535 3773 Z M 1536 3769  Z M 1656 3768 L 1655 3769 L 1654 3769 L 1650 3773 L 1650 3774 L 1646 3778 L 1646 3779 L 1643 3782 L 1643 3783 L 1641 3785 L 1641 3786 L 1640 3787 L 1640 3788 L 1639 3789 L 1639 3790 L 1638 3791 L 1638 3792 L 1637 3793 L 1637 3794 L 1636 3795 L 1636 3796 L 1635 3797 L 1635 3799 L 1634 3800 L 1634 3802 L 1633 3803 L 1633 3805 L 1632 3806 L 1632 3808 L 1631 3809 L 1631 3812 L 1630 3813 L 1630 3817 L 1629 3818 L 1629 3823 L 1628 3824 L 1628 3830 L 1629 3831 L 1629 3832 L 1630 3833 L 1630 3834 L 1631 3834 L 1631 3833 L 1634 3830 L 1634 3829 L 1638 3825 L 1638 3824 L 1641 3821 L 1641 3820 L 1644 3817 L 1644 3816 L 1646 3814 L 1646 3813 L 1649 3810 L 1649 3809 L 1650 3808 L 1650 3807 L 1652 3805 L 1652 3804 L 1654 3802 L 1654 3801 L 1655 3800 L 1655 3799 L 1656 3798 L 1656 3797 L 1657 3796 L 1657 3795 L 1658 3794 L 1658 3793 L 1659 3792 L 1659 3791 L 1660 3790 L 1660 3788 L 1661 3787 L 1661 3786 L 1662 3785 L 1662 3783 L 1663 3782 L 1663 3773 L 1662 3772 L 1662 3771 L 1661 3770 L 1661 3769 L 1660 3768 Z M 1567 3744 L 1562 3749 L 1562 3750 L 1561 3751 L 1561 3752 L 1560 3753 L 1560 3754 L 1559 3755 L 1559 3756 L 1558 3757 L 1558 3759 L 1557 3760 L 1557 3761 L 1556 3762 L 1556 3764 L 1555 3765 L 1555 3767 L 1554 3768 L 1554 3771 L 1553 3772 L 1553 3774 L 1552 3775 L 1552 3778 L 1551 3779 L 1551 3782 L 1550 3783 L 1550 3788 L 1549 3789 L 1549 3796 L 1548 3797 L 1548 3817 L 1547 3818 L 1547 3832 L 1548 3833 L 1548 3845 L 1549 3845 L 1549 3844 L 1553 3840 L 1553 3839 L 1556 3836 L 1556 3835 L 1557 3834 L 1557 3833 L 1559 3831 L 1559 3830 L 1560 3829 L 1560 3828 L 1561 3827 L 1561 3826 L 1563 3824 L 1563 3823 L 1564 3822 L 1564 3820 L 1565 3819 L 1565 3818 L 1566 3817 L 1566 3816 L 1567 3815 L 1567 3814 L 1568 3813 L 1568 3811 L 1569 3810 L 1569 3809 L 1570 3808 L 1570 3806 L 1571 3805 L 1571 3803 L 1572 3802 L 1572 3801 L 1573 3800 L 1573 3798 L 1574 3797 L 1574 3794 L 1575 3793 L 1575 3791 L 1576 3790 L 1576 3787 L 1577 3786 L 1577 3783 L 1578 3782 L 1578 3778 L 1579 3777 L 1579 3759 L 1578 3758 L 1578 3755 L 1577 3754 L 1577 3752 L 1576 3751 L 1576 3750 L 1575 3749 L 1575 3748 L 1571 3744 Z M 1833 3730 L 1833 3731 L 1832 3732 L 1832 3737 L 1833 3738 L 1833 3740 L 1834 3741 L 1834 3742 L 1835 3743 L 1835 3744 L 1836 3745 L 1836 3746 L 1838 3748 L 1838 3749 L 1841 3752 L 1841 3753 L 1844 3756 L 1844 3757 L 1846 3759 L 1845 3758 L 1845 3757 L 1844 3756 L 1844 3755 L 1843 3754 L 1843 3753 L 1842 3752 L 1842 3751 L 1841 3750 L 1841 3749 L 1840 3748 L 1840 3747 L 1839 3746 L 1839 3744 L 1838 3743 L 1838 3742 L 1837 3741 L 1837 3740 L 1836 3739 L 1836 3738 L 1835 3737 L 1835 3735 L 1834 3734 L 1834 3733 L 1833 3732 Z M 1852 3724 L 1851 3725 L 1849 3725 L 1849 3726 L 1850 3727 L 1850 3729 L 1851 3730 L 1851 3731 L 1852 3732 L 1852 3734 L 1853 3735 L 1853 3736 L 1854 3737 L 1854 3738 L 1855 3739 L 1855 3740 L 1856 3741 L 1856 3742 L 1857 3743 L 1857 3744 L 1858 3745 L 1858 3746 L 1859 3747 L 1859 3748 L 1860 3749 L 1860 3750 L 1861 3751 L 1861 3752 L 1862 3753 L 1862 3754 L 1863 3755 L 1863 3756 L 1864 3757 L 1864 3758 L 1865 3758 L 1865 3757 L 1866 3756 L 1866 3755 L 1867 3754 L 1867 3753 L 1868 3752 L 1868 3751 L 1869 3750 L 1869 3748 L 1870 3747 L 1870 3746 L 1871 3745 L 1871 3744 L 1872 3743 L 1872 3742 L 1873 3741 L 1873 3739 L 1874 3738 L 1874 3737 L 1875 3736 L 1875 3735 L 1876 3734 L 1876 3733 L 1877 3732 L 1877 3730 L 1878 3729 L 1878 3728 L 1879 3727 L 1879 3726 L 1877 3726 L 1876 3725 L 1862 3725 L 1861 3724 Z M 3554 1348 L 3554 1349 L 3553 1350 L 3553 1351 L 3552 1352 L 3552 1353 L 3551 1354 L 3551 1355 L 3550 1356 L 3550 1357 L 3549 1358 L 3549 1359 L 3548 1360 L 3548 1361 L 3547 1362 L 3547 1363 L 3546 1364 L 3546 1365 L 3545 1366 L 3545 1367 L 3544 1368 L 3544 1369 L 3543 1370 L 3543 1371 L 3542 1372 L 3542 1373 L 3541 1374 L 3541 1375 L 3540 1376 L 3540 1377 L 3539 1378 L 3539 1379 L 3538 1380 L 3538 1381 L 3537 1382 L 3537 1383 L 3536 1384 L 3536 1385 L 3535 1386 L 3535 1387 L 3534 1388 L 3534 1389 L 3533 1390 L 3533 1391 L 3532 1392 L 3532 1393 L 3531 1394 L 3531 1395 L 3530 1396 L 3530 1397 L 3529 1398 L 3529 1399 L 3528 1400 L 3528 1401 L 3527 1402 L 3527 1403 L 3526 1404 L 3526 1405 L 3525 1406 L 3525 1407 L 3524 1408 L 3524 1409 L 3523 1410 L 3523 1411 L 3522 1412 L 3522 1413 L 3521 1414 L 3521 1415 L 3520 1416 L 3520 1417 L 3519 1418 L 3519 1419 L 3518 1420 L 3518 1421 L 3517 1422 L 3517 1423 L 3516 1424 L 3516 1425 L 3515 1426 L 3515 1427 L 3514 1428 L 3514 1429 L 3513 1430 L 3513 1431 L 3512 1432 L 3512 1433 L 3511 1434 L 3511 1435 L 3510 1436 L 3510 1437 L 3509 1438 L 3509 1439 L 3508 1440 L 3508 1441 L 3507 1442 L 3507 1443 L 3506 1444 L 3506 1445 L 3505 1446 L 3505 1447 L 3504 1448 L 3504 1449 L 3503 1450 L 3503 1451 L 3502 1452 L 3502 1453 L 3501 1454 L 3501 1455 L 3500 1456 L 3500 1457 L 3499 1458 L 3499 1459 L 3498 1460 L 3498 1461 L 3497 1462 L 3497 1463 L 3496 1464 L 3496 1465 L 3495 1466 L 3495 1467 L 3494 1468 L 3494 1469 L 3493 1470 L 3493 1471 L 3492 1472 L 3492 1473 L 3491 1474 L 3491 1475 L 3490 1476 L 3490 1477 L 3489 1478 L 3489 1479 L 3488 1480 L 3488 1481 L 3487 1482 L 3487 1483 L 3486 1484 L 3486 1485 L 3485 1486 L 3485 1487 L 3484 1488 L 3484 1489 L 3483 1490 L 3483 1491 L 3482 1492 L 3482 1493 L 3481 1494 L 3481 1495 L 3480 1496 L 3480 1497 L 3479 1498 L 3479 1499 L 3478 1500 L 3478 1501 L 3477 1502 L 3477 1503 L 3476 1504 L 3476 1505 L 3475 1506 L 3475 1507 L 3474 1508 L 3474 1509 L 3473 1510 L 3473 1511 L 3472 1512 L 3472 1513 L 3471 1514 L 3471 1515 L 3470 1516 L 3470 1517 L 3469 1518 L 3469 1519 L 3468 1520 L 3468 1521 L 3467 1522 L 3467 1523 L 3466 1524 L 3466 1525 L 3465 1526 L 3465 1527 L 3464 1528 L 3464 1529 L 3463 1530 L 3463 1531 L 3462 1532 L 3462 1533 L 3461 1534 L 3461 1535 L 3460 1536 L 3460 1537 L 3459 1538 L 3459 1539 L 3458 1540 L 3458 1541 L 3457 1542 L 3457 1544 L 3456 1545 L 3456 1546 L 3455 1547 L 3455 1548 L 3454 1549 L 3454 1550 L 3453 1551 L 3453 1552 L 3452 1553 L 3452 1554 L 3451 1555 L 3451 1556 L 3450 1557 L 3450 1558 L 3449 1559 L 3449 1560 L 3448 1561 L 3448 1562 L 3447 1563 L 3447 1564 L 3446 1565 L 3446 1566 L 3445 1567 L 3445 1568 L 3444 1569 L 3444 1570 L 3443 1571 L 3443 1572 L 3442 1573 L 3442 1574 L 3441 1575 L 3441 1576 L 3440 1577 L 3440 1578 L 3439 1579 L 3439 1580 L 3438 1581 L 3438 1582 L 3437 1583 L 3437 1584 L 3436 1585 L 3436 1586 L 3435 1587 L 3435 1588 L 3434 1589 L 3434 1590 L 3433 1591 L 3433 1592 L 3432 1593 L 3432 1594 L 3431 1595 L 3431 1596 L 3430 1597 L 3430 1598 L 3429 1599 L 3429 1600 L 3428 1601 L 3428 1602 L 3427 1603 L 3427 1604 L 3426 1605 L 3426 1606 L 3425 1607 L 3425 1608 L 3424 1609 L 3424 1610 L 3423 1611 L 3423 1612 L 3422 1613 L 3422 1614 L 3421 1615 L 3421 1616 L 3420 1617 L 3420 1618 L 3419 1619 L 3419 1620 L 3418 1621 L 3418 1622 L 3417 1623 L 3417 1624 L 3416 1625 L 3416 1626 L 3415 1627 L 3415 1628 L 3414 1629 L 3414 1630 L 3413 1631 L 3413 1632 L 3412 1633 L 3412 1634 L 3411 1635 L 3411 1636 L 3410 1637 L 3410 1638 L 3409 1639 L 3409 1640 L 3408 1641 L 3408 1642 L 3407 1643 L 3407 1644 L 3406 1645 L 3406 1646 L 3405 1647 L 3405 1648 L 3404 1649 L 3404 1650 L 3403 1651 L 3403 1652 L 3402 1653 L 3402 1654 L 3401 1655 L 3401 1656 L 3400 1657 L 3400 1658 L 3399 1659 L 3399 1660 L 3398 1661 L 3398 1662 L 3397 1663 L 3397 1664 L 3396 1665 L 3396 1666 L 3395 1667 L 3395 1668 L 3394 1669 L 3394 1670 L 3393 1671 L 3393 1672 L 3392 1673 L 3392 1674 L 3391 1675 L 3391 1676 L 3390 1677 L 3390 1678 L 3389 1679 L 3389 1680 L 3388 1681 L 3388 1682 L 3387 1683 L 3387 1684 L 3386 1685 L 3386 1686 L 3385 1687 L 3385 1688 L 3384 1689 L 3384 1690 L 3383 1691 L 3383 1692 L 3382 1693 L 3382 1694 L 3381 1695 L 3381 1696 L 3380 1697 L 3380 1698 L 3379 1699 L 3379 1700 L 3378 1701 L 3378 1703 L 3379 1704 L 3379 1705 L 3380 1706 L 3380 1707 L 3381 1708 L 3381 1709 L 3382 1710 L 3382 1711 L 3383 1712 L 3383 1714 L 3384 1715 L 3384 1716 L 3385 1717 L 3385 1718 L 3386 1719 L 3386 1720 L 3387 1721 L 3387 1722 L 3388 1723 L 3388 1724 L 3389 1725 L 3389 1726 L 3390 1727 L 3390 1728 L 3391 1729 L 3391 1730 L 3392 1731 L 3392 1732 L 3393 1733 L 3393 1734 L 3394 1735 L 3394 1737 L 3395 1738 L 3395 1739 L 3396 1740 L 3396 1741 L 3397 1742 L 3397 1743 L 3398 1744 L 3398 1745 L 3399 1746 L 3399 1747 L 3400 1748 L 3400 1749 L 3401 1750 L 3401 1751 L 3402 1752 L 3402 1753 L 3403 1754 L 3403 1755 L 3404 1756 L 3404 1757 L 3405 1758 L 3405 1760 L 3406 1761 L 3406 1762 L 3407 1763 L 3407 1764 L 3408 1765 L 3408 1766 L 3409 1767 L 3409 1768 L 3410 1769 L 3410 1770 L 3411 1771 L 3411 1772 L 3412 1773 L 3412 1774 L 3413 1775 L 3413 1776 L 3414 1777 L 3414 1778 L 3415 1779 L 3415 1780 L 3416 1781 L 3416 1783 L 3417 1784 L 3417 1785 L 3418 1786 L 3418 1787 L 3419 1788 L 3419 1789 L 3420 1790 L 3420 1791 L 3421 1792 L 3421 1793 L 3422 1794 L 3422 1795 L 3423 1796 L 3423 1797 L 3424 1798 L 3424 1799 L 3425 1800 L 3425 1801 L 3426 1802 L 3426 1803 L 3427 1804 L 3427 1806 L 3428 1807 L 3428 1808 L 3429 1809 L 3429 1810 L 3430 1811 L 3430 1812 L 3431 1813 L 3431 1814 L 3432 1815 L 3432 1816 L 3433 1817 L 3433 1818 L 3434 1819 L 3434 1820 L 3435 1821 L 3435 1822 L 3436 1823 L 3436 1824 L 3437 1825 L 3437 1826 L 3438 1827 L 3438 1829 L 3439 1830 L 3439 1831 L 3440 1832 L 3440 1833 L 3441 1834 L 3441 1835 L 3442 1836 L 3442 1837 L 3443 1838 L 3443 1839 L 3444 1840 L 3444 1841 L 3445 1842 L 3445 1843 L 3446 1844 L 3446 1845 L 3447 1846 L 3447 1847 L 3448 1848 L 3448 1849 L 3449 1850 L 3449 1852 L 3450 1853 L 3450 1854 L 3451 1855 L 3451 1856 L 3452 1857 L 3452 1858 L 3453 1859 L 3453 1860 L 3454 1861 L 3454 1862 L 3455 1863 L 3455 1864 L 3456 1865 L 3456 1866 L 3457 1867 L 3457 1868 L 3458 1869 L 3458 1870 L 3459 1871 L 3459 1872 L 3460 1873 L 3460 1875 L 3461 1876 L 3461 1877 L 3462 1878 L 3462 1879 L 3463 1880 L 3463 1881 L 3464 1882 L 3464 1883 L 3465 1884 L 3465 1885 L 3466 1886 L 3466 1887 L 3467 1888 L 3467 1889 L 3468 1890 L 3468 1891 L 3469 1892 L 3469 1893 L 3470 1894 L 3470 1895 L 3471 1896 L 3471 1898 L 3472 1899 L 3472 1900 L 3473 1901 L 3473 1902 L 3474 1903 L 3474 1904 L 3475 1905 L 3475 1906 L 3476 1907 L 3476 1908 L 3477 1909 L 3477 1910 L 3478 1911 L 3478 1912 L 3479 1913 L 3479 1914 L 3480 1915 L 3480 1916 L 3481 1917 L 3481 1918 L 3482 1919 L 3482 1921 L 3483 1922 L 3483 1923 L 3484 1924 L 3484 1925 L 3485 1926 L 3485 1927 L 3486 1928 L 3486 1929 L 3487 1930 L 3487 1931 L 3488 1932 L 3488 1933 L 3489 1934 L 3489 1935 L 3490 1936 L 3490 1937 L 3491 1938 L 3491 1939 L 3492 1940 L 3492 1941 L 3493 1942 L 3493 1944 L 3494 1945 L 3494 1946 L 3495 1947 L 3495 1948 L 3496 1949 L 3496 1950 L 3497 1951 L 3497 1952 L 3498 1953 L 3498 1954 L 3499 1955 L 3499 1956 L 3500 1957 L 3500 1958 L 3501 1959 L 3501 1960 L 3502 1961 L 3502 1962 L 3503 1963 L 3503 1964 L 3504 1965 L 3504 1967 L 3505 1968 L 3505 1969 L 3506 1970 L 3506 1971 L 3507 1972 L 3507 1973 L 3508 1974 L 3508 1975 L 3509 1976 L 3509 1977 L 3510 1978 L 3510 1979 L 3511 1980 L 3511 1981 L 3512 1982 L 3512 1983 L 3513 1984 L 3513 1985 L 3514 1986 L 3514 1987 L 3515 1988 L 3515 1990 L 3516 1991 L 3516 1992 L 3517 1993 L 3517 1994 L 3518 1995 L 3518 1996 L 3519 1997 L 3519 1998 L 3520 1999 L 3520 2000 L 3521 2001 L 3521 2002 L 3522 2003 L 3522 2004 L 3523 2005 L 3523 2006 L 3524 2007 L 3524 2008 L 3525 2009 L 3525 2010 L 3526 2011 L 3526 2013 L 3527 2014 L 3527 2015 L 3528 2016 L 3528 2017 L 3529 2018 L 3529 2019 L 3530 2020 L 3530 2021 L 3531 2022 L 3531 2023 L 3532 2024 L 3532 2025 L 3533 2026 L 3533 2027 L 3534 2028 L 3534 2029 L 3535 2030 L 3535 2031 L 3536 2032 L 3536 2033 L 3537 2034 L 3537 2036 L 3538 2037 L 3538 2038 L 3539 2039 L 3539 2040 L 3540 2041 L 3540 2042 L 3541 2043 L 3541 2044 L 3542 2045 L 3542 2046 L 3543 2047 L 3543 2048 L 3544 2049 L 3544 2050 L 3545 2051 L 3545 2052 L 3546 2053 L 3546 2054 L 3547 2055 L 3547 2056 L 3548 2057 L 3548 2059 L 3549 2060 L 3549 2061 L 3550 2062 L 3550 2063 L 3551 2064 L 3551 2065 L 3552 2066 L 3552 2067 L 3553 2068 L 3553 2069 L 3554 2070 L 3554 2071 Z M 955 195 L 954 196 L 950 196 L 949 197 L 947 197 L 946 198 L 945 198 L 944 199 L 943 199 L 942 200 L 941 200 L 940 201 L 939 201 L 937 203 L 936 203 L 926 213 L 926 214 L 923 217 L 923 218 L 921 220 L 921 221 L 920 222 L 920 223 L 919 224 L 919 225 L 918 226 L 918 227 L 917 228 L 917 229 L 916 230 L 916 231 L 915 232 L 915 233 L 914 234 L 914 235 L 913 236 L 913 238 L 912 239 L 912 240 L 911 241 L 911 243 L 910 244 L 910 246 L 909 247 L 909 249 L 908 250 L 908 252 L 907 253 L 907 255 L 906 256 L 906 259 L 905 260 L 905 262 L 904 263 L 904 266 L 903 267 L 903 270 L 902 271 L 902 275 L 901 276 L 901 279 L 900 280 L 900 284 L 899 285 L 899 290 L 898 291 L 898 296 L 897 297 L 897 302 L 896 303 L 896 310 L 895 311 L 895 318 L 894 319 L 894 329 L 893 330 L 893 343 L 892 344 L 892 412 L 893 413 L 893 426 L 894 427 L 894 437 L 895 438 L 895 445 L 896 446 L 896 453 L 897 454 L 897 459 L 898 460 L 898 465 L 899 466 L 899 471 L 900 472 L 900 476 L 901 477 L 901 481 L 902 482 L 902 485 L 903 486 L 903 489 L 904 490 L 904 493 L 905 494 L 905 497 L 906 498 L 906 500 L 907 501 L 907 504 L 908 505 L 908 507 L 909 508 L 909 510 L 910 511 L 910 513 L 911 514 L 911 515 L 912 516 L 912 518 L 913 519 L 913 520 L 914 521 L 914 522 L 915 523 L 915 525 L 916 526 L 916 527 L 917 528 L 917 529 L 919 531 L 919 532 L 920 533 L 920 534 L 921 535 L 921 536 L 923 538 L 923 539 L 926 542 L 926 543 L 936 553 L 937 553 L 939 555 L 940 555 L 941 556 L 942 556 L 943 557 L 944 557 L 945 558 L 946 558 L 947 559 L 950 559 L 951 560 L 955 560 L 956 561 L 964 561 L 965 560 L 970 560 L 971 559 L 973 559 L 974 558 L 975 558 L 976 557 L 977 557 L 978 556 L 979 556 L 980 555 L 981 555 L 983 553 L 984 553 L 995 542 L 995 541 L 997 539 L 997 538 L 999 536 L 999 535 L 1001 533 L 1001 532 L 1002 531 L 1002 530 L 1003 529 L 1003 528 L 1004 527 L 1004 526 L 1005 525 L 1005 524 L 1006 523 L 1006 521 L 1007 520 L 1007 519 L 1008 518 L 1008 516 L 1009 515 L 1009 514 L 1010 513 L 1010 511 L 1011 510 L 1011 508 L 1012 507 L 1012 505 L 1013 504 L 1013 502 L 1014 501 L 1014 498 L 1015 497 L 1015 494 L 1016 493 L 1016 490 L 1017 489 L 1017 486 L 1018 485 L 1018 482 L 1019 481 L 1019 477 L 1020 476 L 1020 472 L 1021 471 L 1021 467 L 1022 466 L 1022 461 L 1023 460 L 1023 454 L 1024 453 L 1024 447 L 1025 446 L 1025 438 L 1026 437 L 1026 428 L 1027 427 L 1027 414 L 1028 413 L 1028 386 L 1029 385 L 1029 371 L 1028 370 L 1028 343 L 1027 342 L 1027 329 L 1026 328 L 1026 319 L 1025 318 L 1025 310 L 1024 309 L 1024 303 L 1023 302 L 1023 296 L 1022 295 L 1022 290 L 1021 289 L 1021 285 L 1020 284 L 1020 280 L 1019 279 L 1019 275 L 1018 274 L 1018 271 L 1017 270 L 1017 267 L 1016 266 L 1016 263 L 1015 262 L 1015 259 L 1014 258 L 1014 256 L 1013 255 L 1013 252 L 1012 251 L 1012 249 L 1011 248 L 1011 246 L 1010 245 L 1010 243 L 1009 242 L 1009 241 L 1008 240 L 1008 238 L 1007 237 L 1007 236 L 1006 235 L 1006 234 L 1005 233 L 1005 231 L 1004 230 L 1004 229 L 1003 228 L 1003 227 L 1002 226 L 1002 225 L 1000 223 L 1000 222 L 999 221 L 999 220 L 997 218 L 997 217 L 995 215 L 995 214 L 984 203 L 983 203 L 981 201 L 980 201 L 978 199 L 976 199 L 975 198 L 974 198 L 973 197 L 971 197 L 970 196 L 966 196 L 965 195 Z M 0 0 L 0 1345 L 124 1345 L 125 1346 L 125 1350 L 126 1351 L 126 1355 L 127 1356 L 127 1359 L 128 1360 L 128 1364 L 129 1365 L 129 1369 L 130 1370 L 130 1373 L 131 1374 L 131 1378 L 132 1379 L 132 1383 L 133 1384 L 133 1387 L 134 1388 L 134 1392 L 135 1393 L 135 1396 L 136 1397 L 136 1401 L 137 1402 L 137 1406 L 138 1407 L 138 1410 L 139 1411 L 139 1415 L 140 1416 L 140 1420 L 141 1421 L 141 1424 L 142 1425 L 142 1429 L 143 1430 L 143 1433 L 144 1434 L 144 1438 L 145 1439 L 145 1443 L 146 1444 L 146 1447 L 147 1448 L 147 1452 L 148 1453 L 148 1457 L 149 1458 L 149 1461 L 150 1462 L 150 1466 L 151 1467 L 151 1471 L 152 1472 L 152 1475 L 153 1476 L 153 1480 L 154 1481 L 154 1484 L 155 1485 L 155 1489 L 156 1490 L 156 1494 L 157 1495 L 157 1498 L 158 1499 L 158 1503 L 159 1504 L 159 1508 L 160 1509 L 160 1512 L 161 1513 L 161 1517 L 162 1518 L 162 1521 L 163 1522 L 163 1526 L 164 1527 L 164 1531 L 165 1532 L 165 1535 L 166 1536 L 166 1540 L 167 1541 L 167 1545 L 168 1546 L 168 1549 L 169 1550 L 169 1554 L 170 1555 L 170 1559 L 171 1560 L 171 1563 L 172 1564 L 172 1568 L 173 1569 L 173 1572 L 174 1573 L 174 1577 L 175 1578 L 175 1582 L 176 1583 L 176 1586 L 177 1587 L 177 1591 L 178 1592 L 178 1596 L 179 1597 L 179 1600 L 180 1601 L 180 1605 L 181 1606 L 181 1610 L 182 1611 L 182 1614 L 183 1615 L 183 1619 L 184 1620 L 184 1623 L 185 1624 L 185 1628 L 186 1629 L 186 1633 L 187 1634 L 187 1637 L 188 1638 L 188 1642 L 189 1643 L 189 1647 L 190 1648 L 190 1651 L 191 1652 L 191 1656 L 192 1657 L 192 1660 L 193 1661 L 193 1665 L 194 1666 L 194 1670 L 195 1671 L 195 1674 L 196 1675 L 196 1679 L 197 1680 L 197 1684 L 198 1685 L 198 1688 L 199 1689 L 199 1693 L 200 1694 L 200 1698 L 201 1699 L 201 1702 L 202 1703 L 202 1707 L 203 1708 L 203 1711 L 204 1712 L 204 1716 L 205 1717 L 205 1721 L 206 1722 L 206 1725 L 207 1726 L 207 1730 L 208 1731 L 208 1735 L 209 1736 L 209 1739 L 210 1740 L 210 1744 L 211 1745 L 211 1748 L 212 1749 L 212 1753 L 213 1754 L 213 1758 L 214 1759 L 214 1762 L 215 1763 L 215 1767 L 216 1768 L 216 1772 L 217 1773 L 217 1776 L 218 1777 L 218 1781 L 219 1782 L 219 1786 L 220 1787 L 220 1790 L 221 1791 L 221 1795 L 222 1796 L 222 1799 L 223 1800 L 223 1804 L 224 1805 L 224 1809 L 225 1810 L 225 1813 L 226 1814 L 226 1818 L 227 1819 L 227 1823 L 228 1824 L 228 1827 L 229 1828 L 229 1832 L 230 1833 L 230 1836 L 231 1837 L 231 1841 L 232 1842 L 232 1846 L 233 1847 L 233 1850 L 234 1851 L 234 1855 L 235 1856 L 235 1860 L 236 1860 L 236 1856 L 237 1855 L 237 1852 L 238 1851 L 238 1847 L 239 1846 L 239 1842 L 240 1841 L 240 1838 L 241 1837 L 241 1833 L 242 1832 L 242 1829 L 243 1828 L 243 1824 L 244 1823 L 244 1819 L 245 1818 L 245 1815 L 246 1814 L 246 1810 L 247 1809 L 247 1805 L 248 1804 L 248 1801 L 249 1800 L 249 1796 L 250 1795 L 250 1791 L 251 1790 L 251 1787 L 252 1786 L 252 1782 L 253 1781 L 253 1777 L 254 1776 L 254 1773 L 255 1772 L 255 1768 L 256 1767 L 256 1764 L 257 1763 L 257 1759 L 258 1758 L 258 1754 L 259 1753 L 259 1750 L 260 1749 L 260 1745 L 261 1744 L 261 1740 L 262 1739 L 262 1736 L 263 1735 L 263 1731 L 264 1730 L 264 1726 L 265 1725 L 265 1722 L 266 1721 L 266 1717 L 267 1716 L 267 1713 L 268 1712 L 268 1708 L 269 1707 L 269 1703 L 270 1702 L 270 1699 L 271 1698 L 271 1694 L 272 1693 L 272 1689 L 273 1688 L 273 1685 L 274 1684 L 274 1680 L 275 1679 L 275 1675 L 276 1674 L 276 1671 L 277 1670 L 277 1666 L 278 1665 L 278 1662 L 279 1661 L 279 1657 L 280 1656 L 280 1652 L 281 1651 L 281 1648 L 282 1647 L 282 1643 L 283 1642 L 283 1638 L 284 1637 L 284 1634 L 285 1633 L 285 1629 L 286 1628 L 286 1624 L 287 1623 L 287 1620 L 288 1619 L 288 1615 L 289 1614 L 289 1610 L 290 1609 L 290 1606 L 291 1605 L 291 1601 L 292 1600 L 292 1597 L 293 1596 L 293 1592 L 294 1591 L 294 1587 L 295 1586 L 295 1583 L 296 1582 L 296 1578 L 297 1577 L 297 1573 L 298 1572 L 298 1569 L 299 1568 L 299 1564 L 300 1563 L 300 1559 L 301 1558 L 301 1555 L 302 1554 L 302 1550 L 303 1549 L 303 1546 L 304 1545 L 304 1541 L 305 1540 L 305 1536 L 306 1535 L 306 1532 L 307 1531 L 307 1527 L 308 1526 L 308 1522 L 309 1521 L 309 1518 L 310 1517 L 310 1513 L 311 1512 L 311 1508 L 312 1507 L 312 1504 L 313 1503 L 313 1499 L 314 1498 L 314 1495 L 315 1494 L 315 1490 L 316 1489 L 316 1485 L 317 1484 L 317 1481 L 318 1480 L 318 1476 L 319 1475 L 319 1471 L 320 1470 L 320 1467 L 321 1466 L 321 1462 L 322 1461 L 322 1457 L 323 1456 L 323 1453 L 324 1452 L 324 1448 L 325 1447 L 325 1443 L 326 1442 L 326 1439 L 327 1438 L 327 1434 L 328 1433 L 328 1430 L 329 1429 L 329 1425 L 330 1424 L 330 1420 L 331 1419 L 331 1416 L 332 1415 L 332 1411 L 333 1410 L 333 1406 L 334 1405 L 334 1402 L 335 1401 L 335 1397 L 336 1396 L 336 1392 L 337 1391 L 337 1388 L 338 1387 L 338 1383 L 339 1382 L 339 1379 L 340 1378 L 340 1374 L 341 1373 L 341 1369 L 342 1368 L 342 1365 L 343 1364 L 343 1360 L 344 1359 L 344 1355 L 345 1354 L 345 1351 L 346 1350 L 346 1346 L 347 1345 L 471 1345 L 472 1346 L 472 2073 L 471 2074 L 367 2074 L 366 2073 L 366 1619 L 366 1623 L 365 1624 L 365 1628 L 364 1629 L 364 1633 L 363 1634 L 363 1638 L 362 1639 L 362 1643 L 361 1644 L 361 1648 L 360 1649 L 360 1653 L 359 1654 L 359 1658 L 358 1659 L 358 1663 L 357 1664 L 357 1668 L 356 1669 L 356 1673 L 355 1674 L 355 1678 L 354 1679 L 354 1683 L 353 1684 L 353 1688 L 352 1689 L 352 1693 L 351 1694 L 351 1698 L 350 1699 L 350 1703 L 349 1704 L 349 1708 L 348 1709 L 348 1713 L 347 1714 L 347 1718 L 346 1719 L 346 1723 L 345 1724 L 345 1728 L 344 1729 L 344 1733 L 343 1734 L 343 1738 L 342 1739 L 342 1743 L 341 1744 L 341 1748 L 340 1749 L 340 1753 L 339 1754 L 339 1758 L 338 1759 L 338 1763 L 337 1764 L 337 1768 L 336 1769 L 336 1773 L 335 1774 L 335 1777 L 334 1778 L 334 1782 L 333 1783 L 333 1787 L 332 1788 L 332 1792 L 331 1793 L 331 1797 L 330 1798 L 330 1802 L 329 1803 L 329 1807 L 328 1808 L 328 1812 L 327 1813 L 327 1817 L 326 1818 L 326 1822 L 325 1823 L 325 1827 L 324 1828 L 324 1832 L 323 1833 L 323 1837 L 322 1838 L 322 1842 L 321 1843 L 321 1847 L 320 1848 L 320 1852 L 319 1853 L 319 1857 L 318 1858 L 318 1862 L 317 1863 L 317 1867 L 316 1868 L 316 1872 L 315 1873 L 315 1877 L 314 1878 L 314 1882 L 313 1883 L 313 1887 L 312 1888 L 312 1892 L 311 1893 L 311 1897 L 310 1898 L 310 1902 L 309 1903 L 309 1907 L 308 1908 L 308 1912 L 307 1913 L 307 1917 L 306 1918 L 306 1922 L 305 1923 L 305 1927 L 304 1928 L 304 1932 L 303 1933 L 303 1937 L 302 1938 L 302 1942 L 301 1943 L 301 1947 L 300 1948 L 300 1952 L 299 1953 L 299 1957 L 298 1958 L 298 1962 L 297 1963 L 297 1967 L 296 1968 L 296 1972 L 295 1973 L 295 1977 L 294 1978 L 294 1982 L 293 1983 L 293 1987 L 292 1988 L 292 1992 L 291 1993 L 291 1997 L 290 1998 L 290 2002 L 289 2003 L 289 2007 L 288 2008 L 288 2012 L 287 2013 L 287 2017 L 286 2018 L 286 2022 L 285 2023 L 285 2027 L 284 2028 L 284 2032 L 283 2033 L 283 2037 L 282 2038 L 282 2042 L 281 2043 L 281 2047 L 280 2048 L 280 2052 L 279 2053 L 279 2057 L 278 2058 L 278 2062 L 277 2063 L 277 2067 L 276 2068 L 276 2072 L 274 2074 L 197 2074 L 195 2072 L 195 2068 L 194 2067 L 194 2063 L 193 2062 L 193 2058 L 192 2057 L 192 2053 L 191 2052 L 191 2048 L 190 2047 L 190 2043 L 189 2042 L 189 2038 L 188 2037 L 188 2033 L 187 2032 L 187 2028 L 186 2027 L 186 2023 L 185 2022 L 185 2018 L 184 2017 L 184 2013 L 183 2012 L 183 2008 L 182 2007 L 182 2003 L 181 2002 L 181 1998 L 180 1997 L 180 1993 L 179 1992 L 179 1988 L 178 1987 L 178 1983 L 177 1982 L 177 1978 L 176 1977 L 176 1973 L 175 1972 L 175 1968 L 174 1967 L 174 1963 L 173 1962 L 173 1958 L 172 1957 L 172 1953 L 171 1952 L 171 1948 L 170 1947 L 170 1943 L 169 1942 L 169 1938 L 168 1937 L 168 1933 L 167 1932 L 167 1928 L 166 1927 L 166 1923 L 165 1922 L 165 1918 L 164 1917 L 164 1913 L 163 1912 L 163 1908 L 162 1907 L 162 1903 L 161 1902 L 161 1898 L 160 1897 L 160 1893 L 159 1892 L 159 1888 L 158 1887 L 158 1883 L 157 1882 L 157 1878 L 156 1877 L 156 1873 L 155 1872 L 155 1868 L 154 1867 L 154 1863 L 153 1862 L 153 1858 L 152 1857 L 152 1853 L 151 1852 L 151 1848 L 150 1847 L 150 1843 L 149 1842 L 149 1838 L 148 1837 L 148 1833 L 147 1832 L 147 1828 L 146 1827 L 146 1823 L 145 1822 L 145 1818 L 144 1817 L 144 1813 L 143 1812 L 143 1808 L 142 1807 L 142 1803 L 141 1802 L 141 1798 L 140 1797 L 140 1793 L 139 1792 L 139 1788 L 138 1787 L 138 1783 L 137 1782 L 137 1778 L 136 1777 L 136 1773 L 135 1772 L 135 1768 L 134 1767 L 134 1763 L 133 1762 L 133 1758 L 132 1757 L 132 1753 L 131 1752 L 131 1748 L 130 1747 L 130 1743 L 129 1742 L 129 1738 L 128 1737 L 128 1733 L 127 1732 L 127 1728 L 126 1727 L 126 1723 L 125 1722 L 125 1718 L 124 1717 L 124 1713 L 123 1712 L 123 1708 L 122 1707 L 122 1703 L 121 1702 L 121 1698 L 120 1697 L 120 1693 L 119 1692 L 119 1688 L 118 1687 L 118 1683 L 117 1682 L 117 1678 L 116 1677 L 116 1673 L 115 1672 L 115 1668 L 114 1667 L 114 1663 L 113 1662 L 113 1658 L 112 1657 L 112 1653 L 111 1652 L 111 1648 L 110 1647 L 110 1643 L 109 1642 L 109 1638 L 108 1637 L 108 1633 L 107 1632 L 107 1628 L 106 1627 L 106 1623 L 105 1622 L 105 1618 L 105 2073 L 104 2074 L 0 2074 L 0 4140 L 1715 4140 L 1713 4140 L 1712 4139 L 1711 4139 L 1704 4132 L 1704 4130 L 1703 4129 L 1703 4121 L 1704 4120 L 1704 4119 L 1705 4118 L 1705 4117 L 1707 4115 L 1707 4114 L 1708 4113 L 1708 4112 L 1710 4110 L 1710 4109 L 1711 4108 L 1711 4107 L 1712 4106 L 1712 4105 L 1714 4103 L 1714 4102 L 1715 4101 L 1715 4100 L 1716 4099 L 1716 4098 L 1718 4096 L 1718 4095 L 1719 4094 L 1719 4093 L 1720 4092 L 1720 4091 L 1721 4090 L 1721 4089 L 1723 4087 L 1723 4086 L 1724 4085 L 1724 4084 L 1725 4083 L 1725 4082 L 1726 4081 L 1726 4080 L 1727 4079 L 1727 4078 L 1728 4077 L 1728 4076 L 1729 4075 L 1729 4074 L 1731 4072 L 1731 4071 L 1732 4070 L 1732 4069 L 1733 4068 L 1733 4067 L 1734 4066 L 1734 4065 L 1735 4064 L 1735 4063 L 1736 4062 L 1736 4061 L 1737 4060 L 1737 4059 L 1738 4058 L 1738 4057 L 1739 4056 L 1739 4055 L 1740 4054 L 1740 4053 L 1741 4052 L 1741 4051 L 1742 4050 L 1742 4049 L 1743 4048 L 1743 4047 L 1744 4046 L 1744 4044 L 1745 4043 L 1745 4042 L 1746 4041 L 1746 4040 L 1747 4039 L 1747 4038 L 1748 4037 L 1748 4036 L 1749 4035 L 1749 4034 L 1750 4033 L 1750 4032 L 1751 4031 L 1751 4030 L 1752 4029 L 1752 4027 L 1753 4026 L 1753 4025 L 1754 4024 L 1754 4023 L 1755 4022 L 1755 4021 L 1756 4020 L 1756 4019 L 1757 4018 L 1757 4017 L 1758 4016 L 1758 4014 L 1759 4013 L 1759 4012 L 1760 4011 L 1760 4010 L 1761 4009 L 1761 4008 L 1762 4007 L 1762 4005 L 1763 4004 L 1763 4003 L 1764 4002 L 1764 4001 L 1765 4000 L 1765 3998 L 1766 3997 L 1766 3996 L 1767 3995 L 1767 3994 L 1768 3993 L 1768 3992 L 1769 3991 L 1769 3989 L 1770 3988 L 1770 3987 L 1771 3986 L 1771 3985 L 1772 3984 L 1772 3982 L 1773 3981 L 1773 3980 L 1774 3979 L 1774 3978 L 1775 3977 L 1775 3975 L 1776 3974 L 1776 3973 L 1777 3972 L 1777 3971 L 1778 3970 L 1778 3968 L 1779 3967 L 1779 3966 L 1780 3965 L 1780 3963 L 1781 3962 L 1781 3961 L 1782 3960 L 1782 3959 L 1783 3958 L 1783 3956 L 1784 3955 L 1784 3954 L 1785 3953 L 1785 3951 L 1786 3950 L 1786 3949 L 1787 3948 L 1787 3946 L 1788 3945 L 1788 3944 L 1789 3943 L 1789 3942 L 1790 3941 L 1790 3939 L 1791 3938 L 1791 3937 L 1792 3936 L 1792 3934 L 1793 3933 L 1793 3932 L 1794 3931 L 1794 3929 L 1795 3928 L 1795 3927 L 1796 3926 L 1796 3924 L 1797 3923 L 1797 3922 L 1798 3921 L 1798 3919 L 1799 3918 L 1799 3917 L 1800 3916 L 1800 3914 L 1801 3913 L 1801 3912 L 1802 3911 L 1802 3909 L 1803 3908 L 1803 3907 L 1804 3906 L 1804 3904 L 1805 3903 L 1805 3902 L 1806 3901 L 1806 3899 L 1807 3898 L 1807 3897 L 1808 3896 L 1808 3894 L 1807 3894 L 1804 3891 L 1803 3891 L 1799 3887 L 1798 3887 L 1793 3882 L 1792 3882 L 1781 3871 L 1781 3870 L 1777 3866 L 1777 3865 L 1775 3863 L 1775 3862 L 1774 3861 L 1774 3860 L 1772 3858 L 1772 3857 L 1771 3856 L 1771 3854 L 1770 3853 L 1770 3852 L 1769 3851 L 1769 3849 L 1768 3848 L 1768 3846 L 1767 3845 L 1767 3841 L 1766 3840 L 1766 3835 L 1765 3834 L 1765 3813 L 1766 3812 L 1766 3805 L 1767 3804 L 1767 3799 L 1768 3798 L 1768 3794 L 1769 3793 L 1769 3790 L 1770 3789 L 1770 3785 L 1771 3784 L 1771 3781 L 1772 3780 L 1772 3778 L 1773 3777 L 1773 3774 L 1774 3773 L 1774 3770 L 1775 3769 L 1775 3766 L 1776 3765 L 1776 3762 L 1777 3761 L 1777 3757 L 1778 3756 L 1778 3750 L 1779 3749 L 1779 3733 L 1778 3732 L 1778 3730 L 1777 3731 L 1776 3731 L 1764 3743 L 1764 3744 L 1761 3747 L 1761 3748 L 1760 3749 L 1760 3750 L 1758 3752 L 1758 3753 L 1757 3754 L 1757 3755 L 1756 3756 L 1756 3757 L 1755 3758 L 1755 3759 L 1754 3760 L 1754 3762 L 1753 3763 L 1753 3764 L 1752 3765 L 1752 3767 L 1751 3768 L 1751 3770 L 1750 3771 L 1750 3773 L 1749 3774 L 1749 3776 L 1748 3777 L 1748 3780 L 1747 3781 L 1747 3784 L 1746 3785 L 1746 3789 L 1745 3790 L 1745 3794 L 1744 3795 L 1744 3798 L 1746 3798 L 1747 3797 L 1749 3797 L 1750 3798 L 1752 3798 L 1756 3802 L 1756 3815 L 1757 3816 L 1757 3844 L 1758 3845 L 1758 3875 L 1757 3876 L 1757 3889 L 1756 3890 L 1756 3897 L 1755 3898 L 1755 3901 L 1754 3902 L 1754 3903 L 1753 3904 L 1752 3904 L 1751 3905 L 1744 3905 L 1743 3904 L 1742 3904 L 1739 3901 L 1739 3900 L 1737 3898 L 1737 3897 L 1736 3896 L 1736 3895 L 1735 3894 L 1735 3893 L 1734 3892 L 1734 3891 L 1733 3890 L 1733 3889 L 1732 3888 L 1732 3886 L 1731 3885 L 1731 3883 L 1730 3882 L 1730 3880 L 1730 3892 L 1729 3893 L 1729 3899 L 1728 3900 L 1728 3903 L 1727 3904 L 1727 3907 L 1726 3908 L 1726 3910 L 1725 3911 L 1725 3913 L 1724 3914 L 1724 3915 L 1723 3916 L 1723 3917 L 1722 3918 L 1722 3919 L 1721 3920 L 1721 3921 L 1719 3923 L 1719 3924 L 1712 3931 L 1710 3931 L 1709 3932 L 1708 3932 L 1707 3931 L 1704 3931 L 1703 3930 L 1702 3930 L 1700 3928 L 1699 3928 L 1691 3920 L 1691 3919 L 1689 3917 L 1689 3916 L 1688 3915 L 1688 3914 L 1687 3913 L 1687 3911 L 1686 3910 L 1686 3908 L 1685 3907 L 1685 3903 L 1684 3902 L 1684 3896 L 1683 3895 L 1683 3871 L 1684 3870 L 1684 3859 L 1685 3858 L 1685 3849 L 1686 3848 L 1686 3834 L 1687 3833 L 1687 3832 L 1688 3831 L 1688 3830 L 1689 3829 L 1690 3829 L 1691 3828 L 1692 3828 L 1693 3827 L 1697 3827 L 1698 3828 L 1699 3828 L 1703 3832 L 1703 3852 L 1702 3853 L 1702 3865 L 1701 3866 L 1701 3898 L 1702 3899 L 1702 3903 L 1703 3904 L 1703 3906 L 1704 3907 L 1704 3908 L 1705 3909 L 1705 3910 L 1706 3911 L 1708 3909 L 1708 3907 L 1709 3906 L 1709 3905 L 1710 3904 L 1710 3902 L 1711 3901 L 1711 3898 L 1712 3897 L 1712 3893 L 1713 3892 L 1713 3861 L 1712 3860 L 1712 3853 L 1711 3852 L 1711 3846 L 1710 3845 L 1710 3840 L 1709 3839 L 1709 3835 L 1708 3834 L 1708 3832 L 1707 3831 L 1707 3828 L 1706 3827 L 1706 3825 L 1705 3824 L 1705 3823 L 1704 3822 L 1704 3820 L 1703 3819 L 1703 3818 L 1702 3817 L 1702 3816 L 1700 3814 L 1700 3813 L 1698 3811 L 1698 3810 L 1690 3802 L 1689 3802 L 1689 3803 L 1688 3804 L 1688 3806 L 1687 3807 L 1687 3808 L 1686 3809 L 1686 3810 L 1685 3811 L 1685 3812 L 1684 3813 L 1684 3815 L 1683 3816 L 1683 3817 L 1682 3818 L 1682 3819 L 1681 3820 L 1681 3822 L 1680 3823 L 1680 3824 L 1679 3825 L 1679 3826 L 1678 3827 L 1678 3829 L 1677 3830 L 1677 3831 L 1676 3832 L 1676 3833 L 1675 3834 L 1675 3835 L 1674 3836 L 1674 3838 L 1673 3839 L 1673 3840 L 1672 3841 L 1672 3842 L 1671 3843 L 1671 3845 L 1670 3846 L 1670 3847 L 1669 3848 L 1669 3849 L 1668 3850 L 1668 3852 L 1667 3853 L 1667 3854 L 1666 3855 L 1666 3856 L 1665 3857 L 1665 3858 L 1664 3859 L 1664 3861 L 1663 3862 L 1663 3863 L 1662 3864 L 1662 3865 L 1661 3866 L 1661 3867 L 1660 3868 L 1660 3870 L 1659 3871 L 1659 3872 L 1658 3873 L 1658 3874 L 1657 3875 L 1657 3876 L 1656 3877 L 1656 3878 L 1655 3879 L 1655 3881 L 1654 3882 L 1654 3883 L 1653 3884 L 1653 3885 L 1652 3886 L 1652 3887 L 1651 3888 L 1654 3891 L 1654 3892 L 1658 3896 L 1658 3897 L 1662 3901 L 1662 3902 L 1665 3905 L 1665 3906 L 1668 3909 L 1668 3910 L 1670 3912 L 1670 3913 L 1672 3915 L 1672 3916 L 1674 3918 L 1674 3919 L 1677 3922 L 1677 3923 L 1679 3925 L 1679 3926 L 1682 3929 L 1682 3930 L 1684 3932 L 1684 3933 L 1687 3936 L 1687 3937 L 1690 3940 L 1690 3941 L 1694 3945 L 1694 3946 L 1700 3952 L 1700 3953 L 1708 3961 L 1708 3962 L 1709 3963 L 1709 3968 L 1708 3969 L 1708 3970 L 1704 3974 L 1697 3974 L 1686 3963 L 1686 3962 L 1680 3956 L 1680 3955 L 1677 3952 L 1677 3951 L 1673 3947 L 1673 3946 L 1670 3943 L 1670 3942 L 1668 3940 L 1668 3939 L 1665 3936 L 1665 3935 L 1663 3933 L 1663 3932 L 1661 3930 L 1661 3929 L 1658 3926 L 1658 3925 L 1656 3923 L 1656 3922 L 1654 3920 L 1654 3919 L 1651 3916 L 1651 3915 L 1649 3913 L 1649 3912 L 1645 3908 L 1645 3907 L 1643 3905 L 1643 3906 L 1642 3907 L 1642 3908 L 1641 3909 L 1641 3910 L 1640 3911 L 1640 3912 L 1639 3913 L 1639 3914 L 1638 3915 L 1638 3916 L 1637 3917 L 1637 3918 L 1636 3919 L 1636 3920 L 1635 3921 L 1635 3922 L 1634 3923 L 1634 3924 L 1633 3925 L 1633 3926 L 1632 3927 L 1632 3928 L 1631 3929 L 1631 3940 L 1630 3941 L 1630 3942 L 1628 3944 L 1627 3944 L 1626 3945 L 1623 3945 L 1622 3946 L 1622 3947 L 1621 3948 L 1621 3949 L 1619 3951 L 1619 3952 L 1618 3953 L 1618 3954 L 1617 3955 L 1617 3956 L 1615 3958 L 1615 3959 L 1614 3960 L 1615 3961 L 1615 3977 L 1614 3978 L 1614 3979 L 1611 3982 L 1610 3982 L 1609 3983 L 1603 3983 L 1602 3982 L 1601 3982 L 1599 3984 L 1599 3985 L 1597 3987 L 1597 3988 L 1595 3990 L 1595 3991 L 1593 3993 L 1593 3994 L 1591 3996 L 1591 3997 L 1589 3999 L 1589 4000 L 1584 4005 L 1583 4005 L 1582 4006 L 1581 4006 L 1580 4007 L 1569 4007 L 1568 4006 L 1567 4006 L 1566 4005 L 1565 4005 L 1559 3999 L 1559 3998 L 1558 3997 L 1558 3988 L 1559 3987 L 1559 3986 L 1560 3985 L 1560 3984 L 1563 3981 L 1563 3980 L 1565 3978 L 1565 3977 L 1567 3975 L 1567 3974 L 1569 3972 L 1569 3971 L 1571 3969 L 1571 3968 L 1573 3966 L 1573 3965 L 1575 3963 L 1575 3962 L 1577 3960 L 1577 3959 L 1578 3958 L 1578 3957 L 1580 3955 L 1580 3954 L 1582 3952 L 1582 3951 L 1583 3950 L 1583 3949 L 1585 3947 L 1585 3946 L 1586 3945 L 1586 3944 L 1587 3943 L 1587 3942 L 1589 3940 L 1589 3939 L 1590 3938 L 1590 3937 L 1591 3936 L 1591 3935 L 1592 3934 L 1592 3933 L 1591 3932 L 1591 3930 L 1590 3929 L 1590 3928 L 1589 3927 L 1589 3925 L 1588 3924 L 1588 3923 L 1587 3922 L 1587 3921 L 1586 3920 L 1586 3919 L 1585 3918 L 1585 3917 L 1584 3916 L 1584 3915 L 1583 3914 L 1583 3913 L 1582 3912 L 1582 3911 L 1580 3909 L 1580 3908 L 1578 3906 L 1578 3905 L 1576 3903 L 1576 3902 L 1572 3898 L 1572 3897 L 1563 3888 L 1562 3888 L 1559 3885 L 1558 3885 L 1556 3883 L 1555 3883 L 1553 3881 L 1552 3881 L 1551 3880 L 1550 3880 L 1550 3934 L 1546 3938 L 1543 3938 L 1542 3939 L 1541 3939 L 1540 3938 L 1538 3938 L 1537 3937 L 1536 3937 L 1534 3935 L 1534 3933 L 1533 3932 L 1533 3925 L 1533 3926 L 1532 3927 L 1532 3928 L 1531 3929 L 1531 3930 L 1529 3932 L 1529 3933 L 1527 3935 L 1527 3936 L 1519 3944 L 1518 3944 L 1516 3946 L 1515 3946 L 1514 3947 L 1513 3947 L 1512 3948 L 1511 3948 L 1510 3949 L 1509 3949 L 1508 3950 L 1506 3950 L 1505 3951 L 1492 3951 L 1491 3950 L 1489 3950 L 1488 3949 L 1487 3949 L 1485 3947 L 1484 3947 L 1478 3941 L 1478 3940 L 1476 3938 L 1476 3937 L 1474 3935 L 1474 3933 L 1473 3932 L 1473 3931 L 1472 3930 L 1472 3928 L 1471 3927 L 1471 3925 L 1470 3924 L 1470 3919 L 1469 3918 L 1469 3919 L 1468 3920 L 1468 3921 L 1467 3922 L 1467 3923 L 1466 3924 L 1466 3925 L 1465 3926 L 1465 3927 L 1464 3928 L 1464 3929 L 1463 3930 L 1463 3932 L 1462 3933 L 1462 3934 L 1461 3935 L 1461 3936 L 1460 3937 L 1460 3938 L 1459 3939 L 1459 3940 L 1457 3942 L 1457 3943 L 1456 3944 L 1456 3945 L 1455 3946 L 1455 3947 L 1454 3948 L 1454 3949 L 1453 3950 L 1453 3951 L 1452 3952 L 1452 3953 L 1451 3954 L 1451 3955 L 1450 3956 L 1450 3957 L 1449 3958 L 1449 3959 L 1447 3961 L 1447 3962 L 1446 3963 L 1446 3964 L 1445 3965 L 1445 3966 L 1444 3967 L 1444 3968 L 1443 3969 L 1443 3970 L 1442 3971 L 1442 3972 L 1441 3973 L 1441 3976 L 1440 3977 L 1440 3980 L 1438 3982 L 1438 3983 L 1437 3984 L 1436 3984 L 1435 3985 L 1434 3985 L 1433 3986 L 1433 3987 L 1431 3989 L 1431 3990 L 1430 3991 L 1430 3992 L 1428 3994 L 1428 3995 L 1426 3997 L 1426 3998 L 1424 4000 L 1424 4001 L 1423 4002 L 1423 4003 L 1421 4005 L 1421 4006 L 1419 4008 L 1419 4009 L 1416 4012 L 1416 4013 L 1414 4015 L 1414 4016 L 1412 4018 L 1412 4019 L 1407 4024 L 1406 4024 L 1405 4025 L 1404 4025 L 1403 4026 L 1392 4026 L 1391 4025 L 1390 4025 L 1389 4024 L 1388 4024 L 1382 4018 L 1382 4017 L 1381 4016 L 1381 4007 L 1382 4006 L 1382 4005 L 1384 4003 L 1384 4002 L 1386 4000 L 1386 3999 L 1388 3997 L 1388 3996 L 1391 3993 L 1391 3992 L 1393 3990 L 1393 3989 L 1395 3987 L 1395 3986 L 1396 3985 L 1396 3984 L 1398 3982 L 1398 3981 L 1400 3979 L 1400 3978 L 1402 3976 L 1402 3975 L 1403 3974 L 1403 3973 L 1405 3971 L 1405 3970 L 1406 3969 L 1406 3968 L 1408 3966 L 1408 3965 L 1409 3964 L 1409 3963 L 1411 3961 L 1411 3960 L 1412 3959 L 1412 3958 L 1413 3957 L 1413 3956 L 1415 3954 L 1415 3953 L 1416 3952 L 1416 3951 L 1417 3950 L 1417 3949 L 1418 3948 L 1418 3947 L 1420 3945 L 1420 3944 L 1421 3943 L 1421 3942 L 1422 3941 L 1422 3940 L 1423 3939 L 1423 3938 L 1424 3937 L 1424 3936 L 1425 3935 L 1425 3934 L 1426 3933 L 1426 3932 L 1427 3931 L 1427 3906 L 1426 3905 L 1426 3869 L 1425 3868 L 1425 3837 L 1414 3837 L 1413 3836 L 1396 3836 L 1395 3835 L 1387 3835 L 1387 3848 L 1386 3849 L 1386 3863 L 1385 3864 L 1385 3877 L 1384 3878 L 1384 3893 L 1383 3894 L 1383 3915 L 1382 3916 L 1382 3935 L 1381 3936 L 1381 3937 L 1379 3939 L 1378 3939 L 1377 3940 L 1371 3940 L 1370 3939 L 1369 3939 L 1366 3936 L 1366 3935 L 1365 3934 L 1365 3913 L 1366 3912 L 1366 3889 L 1367 3888 L 1367 3870 L 1368 3869 L 1368 3853 L 1369 3852 L 1369 3834 L 1364 3834 L 1363 3833 L 1339 3833 L 1338 3832 L 1327 3832 L 1324 3829 L 1324 3828 L 1323 3827 L 1323 3820 L 1327 3816 L 1329 3816 L 1330 3815 L 1339 3815 L 1340 3816 L 1362 3816 L 1363 3817 L 1370 3817 L 1370 3809 L 1371 3808 L 1371 3764 L 1370 3763 L 1370 3750 L 1369 3749 L 1369 3741 L 1368 3740 L 1368 3734 L 1367 3733 L 1367 3728 L 1366 3727 L 1366 3723 L 1365 3722 L 1365 3718 L 1364 3717 L 1364 3714 L 1363 3713 L 1363 3706 L 1364 3705 L 1364 3704 L 1366 3702 L 1367 3702 L 1368 3701 L 1375 3701 L 1379 3705 L 1379 3706 L 1380 3707 L 1380 3710 L 1381 3711 L 1381 3714 L 1382 3715 L 1382 3719 L 1383 3720 L 1383 3724 L 1384 3725 L 1384 3730 L 1385 3731 L 1385 3736 L 1386 3737 L 1386 3744 L 1387 3745 L 1387 3754 L 1388 3755 L 1388 3769 L 1389 3770 L 1389 3811 L 1388 3812 L 1388 3818 L 1391 3818 L 1392 3819 L 1406 3819 L 1407 3820 L 1425 3820 L 1425 3701 L 1426 3700 L 1426 3698 L 1429 3695 L 1430 3695 L 1431 3694 L 1437 3694 L 1438 3695 L 1439 3695 L 1442 3698 L 1442 3821 L 1451 3821 L 1452 3820 L 1468 3820 L 1469 3819 L 1477 3819 L 1478 3818 L 1479 3818 L 1479 3817 L 1480 3816 L 1480 3814 L 1481 3813 L 1481 3812 L 1482 3811 L 1482 3810 L 1483 3809 L 1483 3807 L 1484 3806 L 1484 3805 L 1485 3804 L 1485 3803 L 1486 3802 L 1486 3801 L 1487 3800 L 1487 3798 L 1488 3797 L 1488 3796 L 1489 3795 L 1489 3794 L 1490 3793 L 1490 3792 L 1491 3791 L 1491 3789 L 1492 3788 L 1492 3787 L 1493 3786 L 1493 3785 L 1494 3784 L 1494 3783 L 1495 3782 L 1495 3781 L 1496 3780 L 1496 3778 L 1497 3777 L 1497 3776 L 1498 3775 L 1498 3774 L 1499 3773 L 1499 3772 L 1500 3771 L 1500 3770 L 1501 3769 L 1501 3768 L 1502 3767 L 1502 3766 L 1503 3765 L 1503 3764 L 1504 3763 L 1504 3762 L 1505 3761 L 1505 3759 L 1506 3758 L 1506 3757 L 1507 3756 L 1507 3755 L 1508 3754 L 1508 3753 L 1509 3752 L 1509 3751 L 1510 3750 L 1510 3749 L 1511 3748 L 1511 3747 L 1512 3746 L 1512 3745 L 1513 3744 L 1513 3743 L 1514 3742 L 1514 3741 L 1515 3740 L 1515 3739 L 1516 3738 L 1516 3737 L 1517 3736 L 1517 3735 L 1518 3734 L 1518 3733 L 1519 3732 L 1519 3731 L 1520 3730 L 1520 3729 L 1521 3728 L 1521 3727 L 1522 3726 L 1522 3725 L 1523 3724 L 1523 3723 L 1524 3722 L 1524 3721 L 1525 3720 L 1525 3719 L 1526 3718 L 1526 3717 L 1527 3716 L 1527 3715 L 1528 3714 L 1528 3713 L 1529 3712 L 1529 3711 L 1530 3710 L 1530 3709 L 1531 3708 L 1531 3707 L 1532 3706 L 1532 3705 L 1533 3704 L 1533 3703 L 1534 3702 L 1534 3701 L 1535 3700 L 1535 3699 L 1536 3698 L 1536 3697 L 1537 3696 L 1537 3695 L 1538 3694 L 1538 3693 L 1539 3692 L 1539 3691 L 1540 3690 L 1540 3689 L 1541 3688 L 1541 3687 L 1542 3686 L 1542 3685 L 1543 3684 L 1543 3683 L 1544 3682 L 1544 3681 L 1545 3680 L 1545 3679 L 1546 3678 L 1546 3677 L 1547 3676 L 1547 3675 L 1548 3674 L 1548 3673 L 1549 3672 L 1549 3671 L 1550 3670 L 1550 3668 L 1551 3667 L 1551 3666 L 1552 3665 L 1552 3664 L 1553 3663 L 1553 3662 L 1554 3661 L 1554 3660 L 1555 3659 L 1555 3658 L 1556 3657 L 1556 3655 L 1557 3654 L 1557 3653 L 1558 3652 L 1558 3651 L 1559 3650 L 1559 3649 L 1560 3648 L 1560 3646 L 1561 3645 L 1561 3644 L 1562 3643 L 1562 3642 L 1563 3641 L 1563 3639 L 1564 3638 L 1564 3637 L 1565 3636 L 1565 3635 L 1566 3634 L 1566 3632 L 1567 3631 L 1567 3630 L 1568 3629 L 1568 3627 L 1569 3626 L 1569 3625 L 1570 3624 L 1570 3622 L 1571 3621 L 1571 3620 L 1572 3619 L 1572 3617 L 1573 3616 L 1573 3614 L 1574 3613 L 1574 3612 L 1575 3611 L 1574 3611 L 1571 3614 L 1570 3614 L 1567 3617 L 1566 3617 L 1563 3620 L 1562 3620 L 1559 3623 L 1558 3623 L 1556 3625 L 1555 3625 L 1553 3627 L 1552 3627 L 1550 3629 L 1549 3629 L 1547 3631 L 1546 3631 L 1544 3633 L 1543 3633 L 1541 3635 L 1540 3635 L 1538 3637 L 1537 3637 L 1536 3638 L 1535 3638 L 1533 3640 L 1532 3640 L 1530 3642 L 1529 3642 L 1528 3643 L 1527 3643 L 1525 3645 L 1524 3645 L 1523 3646 L 1522 3646 L 1520 3648 L 1519 3648 L 1518 3649 L 1517 3649 L 1516 3650 L 1515 3650 L 1513 3652 L 1512 3652 L 1511 3653 L 1510 3653 L 1509 3654 L 1508 3654 L 1507 3655 L 1506 3655 L 1504 3657 L 1503 3657 L 1502 3658 L 1501 3658 L 1500 3659 L 1499 3659 L 1498 3660 L 1497 3660 L 1496 3661 L 1495 3661 L 1493 3663 L 1492 3663 L 1491 3664 L 1490 3664 L 1489 3665 L 1488 3665 L 1487 3666 L 1486 3666 L 1485 3667 L 1484 3667 L 1483 3668 L 1482 3668 L 1481 3669 L 1480 3669 L 1479 3670 L 1478 3670 L 1477 3671 L 1476 3671 L 1475 3672 L 1474 3672 L 1473 3673 L 1472 3673 L 1471 3674 L 1470 3674 L 1469 3675 L 1468 3675 L 1467 3676 L 1466 3676 L 1465 3677 L 1464 3677 L 1463 3678 L 1462 3678 L 1461 3679 L 1460 3679 L 1459 3680 L 1458 3680 L 1457 3681 L 1456 3681 L 1455 3682 L 1454 3682 L 1453 3683 L 1452 3683 L 1451 3684 L 1450 3684 L 1449 3685 L 1448 3685 L 1447 3686 L 1446 3686 L 1445 3687 L 1444 3687 L 1443 3688 L 1441 3688 L 1440 3689 L 1430 3689 L 1429 3688 L 1428 3688 L 1427 3687 L 1426 3687 L 1420 3681 L 1420 3680 L 1419 3679 L 1419 3677 L 1418 3676 L 1418 3669 L 1419 3668 L 1419 3667 L 1420 3666 L 1420 3665 L 1424 3661 L 1425 3661 L 1426 3660 L 1427 3660 L 1428 3659 L 1429 3659 L 1430 3658 L 1431 3658 L 1432 3657 L 1433 3657 L 1434 3656 L 1435 3656 L 1436 3655 L 1437 3655 L 1438 3654 L 1439 3654 L 1440 3653 L 1441 3653 L 1442 3652 L 1443 3652 L 1444 3651 L 1445 3651 L 1446 3650 L 1447 3650 L 1448 3649 L 1449 3649 L 1450 3648 L 1451 3648 L 1452 3647 L 1453 3647 L 1454 3646 L 1455 3646 L 1456 3645 L 1457 3645 L 1458 3644 L 1459 3644 L 1460 3643 L 1461 3643 L 1462 3642 L 1463 3642 L 1464 3641 L 1465 3641 L 1466 3640 L 1467 3640 L 1468 3639 L 1469 3639 L 1470 3638 L 1471 3638 L 1472 3637 L 1473 3637 L 1474 3636 L 1475 3636 L 1476 3635 L 1477 3635 L 1478 3634 L 1479 3634 L 1481 3632 L 1482 3632 L 1483 3631 L 1484 3631 L 1485 3630 L 1486 3630 L 1487 3629 L 1488 3629 L 1489 3628 L 1490 3628 L 1492 3626 L 1493 3626 L 1494 3625 L 1495 3625 L 1496 3624 L 1497 3624 L 1498 3623 L 1499 3623 L 1501 3621 L 1502 3621 L 1503 3620 L 1504 3620 L 1506 3618 L 1507 3618 L 1508 3617 L 1509 3617 L 1511 3615 L 1512 3615 L 1513 3614 L 1514 3614 L 1516 3612 L 1517 3612 L 1518 3611 L 1519 3611 L 1521 3609 L 1522 3609 L 1524 3607 L 1525 3607 L 1527 3605 L 1528 3605 L 1530 3603 L 1531 3603 L 1533 3601 L 1534 3601 L 1536 3599 L 1537 3599 L 1540 3596 L 1541 3596 L 1543 3594 L 1544 3594 L 1547 3591 L 1548 3591 L 1551 3588 L 1552 3588 L 1555 3585 L 1556 3585 L 1560 3581 L 1561 3581 L 1566 3576 L 1567 3576 L 1574 3569 L 1575 3569 L 1598 3546 L 1599 3546 L 1600 3545 L 1601 3545 L 1602 3544 L 1609 3544 L 1610 3545 L 1612 3545 L 1614 3547 L 1615 3547 L 1619 3551 L 1619 3552 L 1620 3553 L 1620 3554 L 1621 3555 L 1621 3556 L 1622 3557 L 1622 3565 L 1621 3566 L 1621 3569 L 1620 3570 L 1620 3574 L 1619 3575 L 1619 3578 L 1618 3579 L 1618 3582 L 1617 3583 L 1617 3585 L 1616 3586 L 1616 3589 L 1615 3590 L 1615 3592 L 1614 3593 L 1614 3596 L 1613 3597 L 1613 3599 L 1612 3600 L 1612 3602 L 1611 3603 L 1611 3605 L 1610 3606 L 1610 3608 L 1609 3609 L 1609 3611 L 1608 3612 L 1608 3614 L 1607 3615 L 1607 3617 L 1606 3618 L 1606 3620 L 1605 3621 L 1605 3623 L 1604 3624 L 1604 3625 L 1603 3626 L 1603 3628 L 1602 3629 L 1602 3630 L 1601 3631 L 1601 3633 L 1600 3634 L 1600 3636 L 1599 3637 L 1599 3638 L 1598 3639 L 1598 3641 L 1597 3642 L 1597 3643 L 1596 3644 L 1596 3645 L 1595 3646 L 1595 3648 L 1594 3649 L 1594 3650 L 1593 3651 L 1593 3652 L 1592 3653 L 1592 3655 L 1591 3656 L 1591 3657 L 1590 3658 L 1590 3659 L 1589 3660 L 1589 3662 L 1588 3663 L 1588 3664 L 1587 3665 L 1587 3666 L 1586 3667 L 1586 3668 L 1585 3669 L 1585 3670 L 1584 3671 L 1584 3673 L 1583 3674 L 1583 3675 L 1582 3676 L 1582 3677 L 1581 3678 L 1581 3679 L 1580 3680 L 1580 3681 L 1579 3682 L 1579 3683 L 1578 3684 L 1578 3685 L 1577 3686 L 1577 3688 L 1576 3689 L 1576 3690 L 1575 3691 L 1575 3692 L 1574 3693 L 1574 3694 L 1573 3695 L 1573 3696 L 1572 3697 L 1572 3698 L 1571 3699 L 1571 3700 L 1570 3701 L 1570 3702 L 1569 3703 L 1569 3704 L 1568 3705 L 1568 3706 L 1567 3707 L 1567 3708 L 1566 3709 L 1566 3710 L 1565 3711 L 1565 3712 L 1564 3713 L 1564 3714 L 1563 3715 L 1563 3716 L 1562 3717 L 1562 3718 L 1561 3719 L 1561 3720 L 1560 3721 L 1560 3722 L 1559 3723 L 1559 3724 L 1558 3725 L 1558 3726 L 1557 3727 L 1557 3728 L 1556 3729 L 1556 3730 L 1555 3731 L 1555 3732 L 1554 3733 L 1556 3731 L 1557 3731 L 1560 3728 L 1562 3728 L 1563 3727 L 1565 3727 L 1566 3726 L 1571 3726 L 1572 3727 L 1575 3727 L 1576 3728 L 1577 3728 L 1578 3729 L 1579 3729 L 1582 3732 L 1583 3732 L 1586 3735 L 1586 3736 L 1589 3739 L 1589 3740 L 1591 3742 L 1591 3743 L 1592 3744 L 1592 3745 L 1593 3746 L 1593 3748 L 1594 3749 L 1594 3751 L 1595 3752 L 1595 3755 L 1596 3756 L 1596 3763 L 1597 3764 L 1597 3772 L 1596 3773 L 1596 3781 L 1595 3782 L 1595 3786 L 1594 3787 L 1594 3791 L 1593 3792 L 1593 3794 L 1592 3795 L 1592 3798 L 1591 3799 L 1591 3801 L 1590 3802 L 1590 3804 L 1589 3805 L 1589 3806 L 1588 3807 L 1588 3809 L 1587 3810 L 1587 3811 L 1586 3812 L 1586 3814 L 1585 3815 L 1585 3816 L 1584 3817 L 1584 3818 L 1583 3819 L 1583 3821 L 1582 3822 L 1582 3823 L 1581 3824 L 1581 3825 L 1580 3826 L 1580 3827 L 1579 3828 L 1579 3829 L 1578 3830 L 1578 3831 L 1577 3832 L 1577 3833 L 1576 3834 L 1576 3835 L 1574 3837 L 1574 3838 L 1573 3839 L 1573 3840 L 1571 3842 L 1571 3843 L 1569 3845 L 1569 3846 L 1567 3848 L 1567 3849 L 1563 3853 L 1563 3854 L 1555 3862 L 1555 3863 L 1556 3863 L 1557 3864 L 1558 3864 L 1559 3865 L 1560 3865 L 1562 3867 L 1563 3867 L 1564 3868 L 1565 3868 L 1567 3870 L 1568 3870 L 1572 3874 L 1573 3874 L 1586 3887 L 1586 3888 L 1590 3892 L 1590 3893 L 1592 3895 L 1592 3896 L 1594 3898 L 1594 3899 L 1596 3901 L 1596 3902 L 1597 3903 L 1597 3904 L 1599 3906 L 1599 3907 L 1600 3908 L 1600 3909 L 1601 3910 L 1601 3911 L 1602 3912 L 1602 3913 L 1603 3914 L 1603 3913 L 1604 3912 L 1604 3911 L 1605 3910 L 1605 3909 L 1606 3908 L 1606 3907 L 1607 3906 L 1607 3905 L 1608 3904 L 1608 3903 L 1609 3902 L 1609 3901 L 1610 3900 L 1610 3899 L 1611 3898 L 1611 3885 L 1610 3884 L 1610 3865 L 1609 3864 L 1609 3846 L 1610 3845 L 1610 3830 L 1611 3829 L 1611 3822 L 1612 3821 L 1612 3816 L 1613 3815 L 1613 3811 L 1614 3810 L 1614 3807 L 1615 3806 L 1615 3803 L 1616 3802 L 1616 3799 L 1617 3798 L 1617 3796 L 1618 3795 L 1618 3793 L 1619 3792 L 1619 3791 L 1620 3790 L 1620 3788 L 1621 3787 L 1621 3786 L 1622 3785 L 1622 3784 L 1623 3783 L 1623 3782 L 1624 3781 L 1624 3780 L 1625 3779 L 1625 3778 L 1626 3777 L 1626 3776 L 1627 3775 L 1627 3774 L 1629 3772 L 1629 3771 L 1632 3768 L 1632 3767 L 1643 3756 L 1644 3756 L 1646 3754 L 1647 3754 L 1649 3752 L 1650 3752 L 1651 3751 L 1653 3751 L 1654 3750 L 1663 3750 L 1664 3751 L 1665 3751 L 1666 3752 L 1667 3752 L 1668 3753 L 1669 3753 L 1674 3758 L 1674 3757 L 1675 3756 L 1675 3755 L 1676 3754 L 1676 3753 L 1677 3752 L 1677 3751 L 1678 3750 L 1678 3749 L 1679 3748 L 1679 3747 L 1680 3746 L 1680 3744 L 1681 3743 L 1681 3742 L 1682 3741 L 1682 3740 L 1683 3739 L 1683 3738 L 1684 3737 L 1684 3736 L 1685 3735 L 1685 3734 L 1686 3733 L 1686 3732 L 1687 3731 L 1687 3730 L 1688 3729 L 1688 3728 L 1689 3727 L 1689 3726 L 1690 3725 L 1690 3724 L 1691 3723 L 1691 3722 L 1692 3721 L 1692 3720 L 1693 3719 L 1693 3718 L 1694 3717 L 1694 3716 L 1695 3715 L 1695 3714 L 1696 3713 L 1696 3712 L 1697 3711 L 1697 3710 L 1698 3709 L 1698 3708 L 1699 3707 L 1699 3706 L 1700 3705 L 1700 3704 L 1701 3703 L 1701 3702 L 1702 3701 L 1702 3700 L 1703 3699 L 1703 3698 L 1704 3697 L 1704 3696 L 1705 3695 L 1705 3694 L 1706 3693 L 1706 3692 L 1707 3691 L 1707 3690 L 1708 3689 L 1708 3688 L 1709 3687 L 1709 3686 L 1710 3685 L 1710 3684 L 1711 3683 L 1711 3682 L 1712 3681 L 1712 3680 L 1713 3679 L 1713 3678 L 1714 3677 L 1714 3676 L 1715 3675 L 1715 3674 L 1716 3673 L 1716 3672 L 1717 3671 L 1717 3670 L 1718 3669 L 1718 3668 L 1719 3667 L 1719 3666 L 1720 3665 L 1720 3664 L 1721 3663 L 1721 3662 L 1722 3661 L 1722 3660 L 1723 3659 L 1723 3658 L 1724 3657 L 1724 3656 L 1725 3655 L 1725 3654 L 1726 3653 L 1726 3651 L 1727 3650 L 1727 3649 L 1728 3648 L 1728 3647 L 1729 3646 L 1729 3645 L 1730 3644 L 1730 3643 L 1731 3642 L 1731 3641 L 1732 3640 L 1732 3639 L 1733 3638 L 1733 3636 L 1734 3635 L 1734 3634 L 1735 3633 L 1735 3632 L 1736 3631 L 1736 3630 L 1737 3629 L 1737 3627 L 1738 3626 L 1738 3625 L 1739 3624 L 1739 3623 L 1740 3622 L 1740 3620 L 1741 3619 L 1741 3618 L 1742 3617 L 1742 3616 L 1743 3615 L 1743 3613 L 1744 3612 L 1744 3611 L 1745 3610 L 1745 3608 L 1746 3607 L 1746 3606 L 1747 3605 L 1747 3603 L 1748 3602 L 1748 3601 L 1749 3600 L 1749 3598 L 1750 3597 L 1750 3595 L 1751 3594 L 1751 3592 L 1748 3595 L 1747 3595 L 1744 3598 L 1743 3598 L 1740 3601 L 1739 3601 L 1737 3603 L 1736 3603 L 1733 3606 L 1732 3606 L 1730 3608 L 1729 3608 L 1727 3610 L 1726 3610 L 1724 3612 L 1723 3612 L 1721 3614 L 1720 3614 L 1718 3616 L 1717 3616 L 1715 3618 L 1714 3618 L 1713 3619 L 1712 3619 L 1710 3621 L 1709 3621 L 1707 3623 L 1706 3623 L 1705 3624 L 1704 3624 L 1702 3626 L 1701 3626 L 1700 3627 L 1699 3627 L 1698 3628 L 1697 3628 L 1695 3630 L 1694 3630 L 1693 3631 L 1692 3631 L 1690 3633 L 1689 3633 L 1688 3634 L 1687 3634 L 1686 3635 L 1685 3635 L 1684 3636 L 1683 3636 L 1681 3638 L 1680 3638 L 1679 3639 L 1678 3639 L 1677 3640 L 1676 3640 L 1675 3641 L 1674 3641 L 1673 3642 L 1672 3642 L 1671 3643 L 1670 3643 L 1668 3645 L 1667 3645 L 1666 3646 L 1665 3646 L 1664 3647 L 1663 3647 L 1662 3648 L 1661 3648 L 1660 3649 L 1659 3649 L 1658 3650 L 1657 3650 L 1656 3651 L 1655 3651 L 1654 3652 L 1653 3652 L 1652 3653 L 1651 3653 L 1650 3654 L 1649 3654 L 1648 3655 L 1647 3655 L 1646 3656 L 1645 3656 L 1644 3657 L 1643 3657 L 1642 3658 L 1641 3658 L 1640 3659 L 1639 3659 L 1638 3660 L 1637 3660 L 1636 3661 L 1635 3661 L 1634 3662 L 1633 3662 L 1632 3663 L 1631 3663 L 1630 3664 L 1629 3664 L 1628 3665 L 1627 3665 L 1626 3666 L 1625 3666 L 1624 3667 L 1623 3667 L 1622 3668 L 1621 3668 L 1620 3669 L 1618 3669 L 1617 3670 L 1613 3670 L 1612 3671 L 1611 3671 L 1610 3670 L 1607 3670 L 1606 3669 L 1605 3669 L 1604 3668 L 1603 3668 L 1597 3662 L 1597 3661 L 1596 3660 L 1596 3658 L 1595 3657 L 1595 3650 L 1596 3649 L 1596 3647 L 1601 3642 L 1602 3642 L 1603 3641 L 1604 3641 L 1605 3640 L 1606 3640 L 1607 3639 L 1608 3639 L 1609 3638 L 1610 3638 L 1611 3637 L 1612 3637 L 1613 3636 L 1614 3636 L 1615 3635 L 1616 3635 L 1617 3634 L 1618 3634 L 1619 3633 L 1620 3633 L 1621 3632 L 1622 3632 L 1623 3631 L 1624 3631 L 1625 3630 L 1626 3630 L 1627 3629 L 1628 3629 L 1629 3628 L 1630 3628 L 1631 3627 L 1632 3627 L 1633 3626 L 1634 3626 L 1635 3625 L 1636 3625 L 1637 3624 L 1638 3624 L 1639 3623 L 1640 3623 L 1641 3622 L 1642 3622 L 1643 3621 L 1644 3621 L 1645 3620 L 1646 3620 L 1647 3619 L 1648 3619 L 1649 3618 L 1650 3618 L 1651 3617 L 1652 3617 L 1653 3616 L 1654 3616 L 1655 3615 L 1656 3615 L 1658 3613 L 1659 3613 L 1660 3612 L 1661 3612 L 1662 3611 L 1663 3611 L 1664 3610 L 1665 3610 L 1666 3609 L 1667 3609 L 1669 3607 L 1670 3607 L 1671 3606 L 1672 3606 L 1673 3605 L 1674 3605 L 1676 3603 L 1677 3603 L 1678 3602 L 1679 3602 L 1680 3601 L 1681 3601 L 1683 3599 L 1684 3599 L 1685 3598 L 1686 3598 L 1688 3596 L 1689 3596 L 1690 3595 L 1691 3595 L 1693 3593 L 1694 3593 L 1696 3591 L 1697 3591 L 1698 3590 L 1699 3590 L 1701 3588 L 1702 3588 L 1704 3586 L 1705 3586 L 1707 3584 L 1708 3584 L 1710 3582 L 1711 3582 L 1713 3580 L 1714 3580 L 1717 3577 L 1718 3577 L 1720 3575 L 1721 3575 L 1724 3572 L 1725 3572 L 1728 3569 L 1729 3569 L 1732 3566 L 1733 3566 L 1737 3562 L 1738 3562 L 1743 3557 L 1744 3557 L 1752 3549 L 1753 3549 L 1775 3527 L 1776 3527 L 1777 3526 L 1778 3526 L 1779 3525 L 1786 3525 L 1787 3526 L 1788 3526 L 1789 3527 L 1790 3527 L 1791 3528 L 1792 3528 L 1796 3532 L 1796 3533 L 1797 3534 L 1797 3535 L 1798 3536 L 1798 3538 L 1799 3539 L 1799 3546 L 1798 3547 L 1798 3550 L 1797 3551 L 1797 3554 L 1796 3555 L 1796 3558 L 1795 3559 L 1795 3562 L 1794 3563 L 1794 3566 L 1793 3567 L 1793 3570 L 1792 3571 L 1792 3573 L 1791 3574 L 1791 3577 L 1790 3578 L 1790 3580 L 1789 3581 L 1789 3583 L 1788 3584 L 1788 3586 L 1787 3587 L 1787 3589 L 1786 3590 L 1786 3592 L 1785 3593 L 1785 3595 L 1784 3596 L 1784 3598 L 1783 3599 L 1783 3601 L 1782 3602 L 1782 3603 L 1781 3604 L 1781 3606 L 1780 3607 L 1780 3609 L 1779 3610 L 1779 3611 L 1778 3612 L 1778 3614 L 1777 3615 L 1777 3616 L 1776 3617 L 1776 3619 L 1775 3620 L 1775 3621 L 1774 3622 L 1774 3624 L 1773 3625 L 1773 3626 L 1772 3627 L 1772 3629 L 1771 3630 L 1771 3631 L 1770 3632 L 1770 3633 L 1769 3634 L 1769 3636 L 1768 3637 L 1768 3638 L 1767 3639 L 1767 3640 L 1766 3641 L 1766 3642 L 1765 3643 L 1765 3645 L 1764 3646 L 1764 3647 L 1763 3648 L 1763 3649 L 1762 3650 L 1762 3651 L 1761 3652 L 1761 3654 L 1760 3655 L 1760 3656 L 1759 3657 L 1759 3658 L 1758 3659 L 1758 3660 L 1757 3661 L 1757 3662 L 1756 3663 L 1756 3664 L 1755 3665 L 1755 3666 L 1754 3667 L 1754 3668 L 1753 3669 L 1753 3670 L 1752 3671 L 1752 3673 L 1751 3674 L 1751 3675 L 1750 3676 L 1750 3677 L 1749 3678 L 1749 3679 L 1748 3680 L 1748 3681 L 1747 3682 L 1747 3683 L 1746 3684 L 1746 3685 L 1745 3686 L 1745 3687 L 1744 3688 L 1744 3689 L 1743 3690 L 1743 3691 L 1742 3692 L 1742 3693 L 1741 3694 L 1741 3695 L 1740 3696 L 1740 3697 L 1739 3698 L 1739 3699 L 1738 3700 L 1738 3701 L 1737 3702 L 1737 3703 L 1736 3704 L 1736 3705 L 1735 3706 L 1735 3707 L 1734 3708 L 1734 3709 L 1733 3710 L 1733 3711 L 1732 3712 L 1732 3713 L 1731 3714 L 1731 3715 L 1730 3716 L 1730 3717 L 1729 3718 L 1729 3719 L 1728 3720 L 1728 3721 L 1727 3722 L 1727 3723 L 1726 3724 L 1726 3725 L 1725 3726 L 1725 3727 L 1724 3728 L 1724 3729 L 1723 3730 L 1723 3731 L 1722 3732 L 1722 3733 L 1721 3734 L 1721 3735 L 1720 3736 L 1720 3737 L 1719 3738 L 1719 3739 L 1718 3740 L 1718 3741 L 1717 3742 L 1717 3743 L 1716 3744 L 1716 3745 L 1715 3746 L 1715 3747 L 1714 3748 L 1714 3749 L 1713 3750 L 1713 3751 L 1712 3752 L 1712 3753 L 1711 3754 L 1711 3755 L 1710 3756 L 1710 3757 L 1709 3758 L 1709 3759 L 1708 3760 L 1708 3761 L 1707 3762 L 1707 3763 L 1706 3764 L 1706 3766 L 1705 3767 L 1705 3768 L 1704 3769 L 1704 3770 L 1703 3771 L 1703 3772 L 1702 3773 L 1702 3774 L 1701 3775 L 1701 3776 L 1700 3777 L 1700 3778 L 1699 3779 L 1699 3781 L 1698 3782 L 1698 3783 L 1697 3784 L 1697 3786 L 1698 3786 L 1701 3789 L 1702 3789 L 1709 3796 L 1709 3797 L 1712 3800 L 1712 3801 L 1714 3803 L 1714 3804 L 1716 3806 L 1716 3807 L 1717 3808 L 1717 3809 L 1718 3810 L 1718 3811 L 1719 3812 L 1719 3813 L 1720 3814 L 1720 3816 L 1721 3817 L 1721 3818 L 1722 3819 L 1722 3821 L 1723 3822 L 1723 3824 L 1724 3825 L 1724 3828 L 1724 3816 L 1725 3815 L 1725 3807 L 1726 3806 L 1726 3800 L 1727 3799 L 1727 3794 L 1728 3793 L 1728 3789 L 1729 3788 L 1729 3784 L 1730 3783 L 1730 3779 L 1731 3778 L 1731 3776 L 1732 3775 L 1732 3772 L 1733 3771 L 1733 3768 L 1734 3767 L 1734 3765 L 1735 3764 L 1735 3762 L 1736 3761 L 1736 3759 L 1737 3758 L 1737 3757 L 1738 3756 L 1738 3754 L 1739 3753 L 1739 3752 L 1740 3751 L 1740 3750 L 1741 3749 L 1741 3748 L 1742 3747 L 1742 3746 L 1743 3745 L 1743 3744 L 1744 3743 L 1744 3742 L 1745 3741 L 1745 3740 L 1746 3739 L 1746 3738 L 1748 3736 L 1748 3735 L 1751 3732 L 1751 3731 L 1763 3719 L 1764 3719 L 1766 3717 L 1767 3717 L 1768 3716 L 1769 3716 L 1770 3715 L 1771 3715 L 1772 3714 L 1773 3714 L 1774 3713 L 1777 3713 L 1778 3712 L 1782 3712 L 1783 3713 L 1785 3713 L 1786 3714 L 1787 3714 L 1790 3717 L 1790 3718 L 1792 3720 L 1792 3722 L 1793 3723 L 1793 3724 L 1794 3725 L 1794 3729 L 1795 3730 L 1795 3738 L 1796 3739 L 1796 3747 L 1795 3748 L 1795 3758 L 1794 3759 L 1794 3764 L 1793 3765 L 1793 3769 L 1792 3770 L 1792 3773 L 1791 3774 L 1791 3777 L 1790 3778 L 1790 3781 L 1789 3782 L 1789 3785 L 1788 3786 L 1788 3789 L 1787 3790 L 1787 3793 L 1786 3794 L 1786 3797 L 1785 3798 L 1785 3802 L 1784 3803 L 1784 3807 L 1783 3808 L 1783 3814 L 1782 3815 L 1782 3833 L 1783 3834 L 1783 3838 L 1784 3839 L 1784 3842 L 1785 3843 L 1785 3844 L 1786 3845 L 1786 3847 L 1787 3848 L 1787 3849 L 1788 3850 L 1788 3851 L 1789 3852 L 1789 3853 L 1791 3855 L 1791 3856 L 1795 3860 L 1795 3861 L 1802 3868 L 1803 3868 L 1809 3874 L 1810 3874 L 1814 3878 L 1815 3878 L 1815 3877 L 1816 3876 L 1816 3874 L 1817 3873 L 1817 3872 L 1818 3871 L 1818 3869 L 1819 3868 L 1819 3867 L 1820 3866 L 1820 3864 L 1821 3863 L 1821 3862 L 1822 3861 L 1822 3859 L 1823 3858 L 1823 3857 L 1824 3856 L 1824 3855 L 1825 3854 L 1825 3852 L 1826 3851 L 1826 3850 L 1827 3849 L 1827 3847 L 1828 3846 L 1828 3845 L 1829 3844 L 1829 3842 L 1830 3841 L 1830 3840 L 1831 3839 L 1831 3837 L 1832 3836 L 1832 3835 L 1833 3834 L 1833 3832 L 1834 3831 L 1834 3830 L 1835 3829 L 1835 3827 L 1836 3826 L 1836 3825 L 1837 3824 L 1837 3823 L 1838 3822 L 1838 3820 L 1839 3819 L 1839 3818 L 1840 3817 L 1840 3815 L 1841 3814 L 1841 3813 L 1842 3812 L 1842 3811 L 1843 3810 L 1843 3808 L 1844 3807 L 1844 3806 L 1845 3805 L 1845 3803 L 1846 3802 L 1846 3801 L 1847 3800 L 1847 3799 L 1848 3798 L 1848 3796 L 1849 3795 L 1849 3794 L 1850 3793 L 1850 3792 L 1851 3791 L 1851 3789 L 1837 3775 L 1837 3774 L 1831 3768 L 1831 3767 L 1827 3763 L 1827 3762 L 1825 3760 L 1825 3759 L 1823 3757 L 1823 3756 L 1821 3754 L 1821 3753 L 1820 3752 L 1820 3751 L 1819 3750 L 1819 3749 L 1818 3748 L 1818 3747 L 1817 3746 L 1817 3744 L 1816 3743 L 1816 3740 L 1815 3739 L 1815 3728 L 1816 3727 L 1816 3725 L 1817 3724 L 1817 3723 L 1818 3722 L 1818 3721 L 1820 3719 L 1820 3718 L 1823 3715 L 1824 3715 L 1826 3713 L 1827 3713 L 1827 3709 L 1826 3708 L 1826 3704 L 1825 3703 L 1825 3696 L 1824 3695 L 1824 3694 L 1825 3693 L 1825 3691 L 1829 3687 L 1835 3687 L 1836 3688 L 1837 3688 L 1841 3692 L 1841 3694 L 1842 3695 L 1842 3701 L 1843 3702 L 1843 3707 L 1844 3708 L 1850 3708 L 1851 3707 L 1860 3707 L 1861 3708 L 1876 3708 L 1877 3709 L 1887 3709 L 1887 3708 L 1888 3707 L 1888 3706 L 1889 3705 L 1889 3703 L 1890 3702 L 1890 3701 L 1891 3700 L 1891 3699 L 1892 3698 L 1892 3697 L 1893 3696 L 1893 3694 L 1894 3693 L 1894 3692 L 1895 3691 L 1895 3690 L 1896 3689 L 1896 3687 L 1897 3686 L 1897 3685 L 1898 3684 L 1898 3683 L 1899 3682 L 1899 3681 L 1900 3680 L 1900 3678 L 1901 3677 L 1901 3676 L 1902 3675 L 1902 3674 L 1903 3673 L 1903 3671 L 1904 3670 L 1904 3669 L 1905 3668 L 1905 3666 L 1906 3665 L 1906 3664 L 1907 3663 L 1907 3662 L 1908 3661 L 1908 3659 L 1909 3658 L 1909 3657 L 1910 3656 L 1910 3654 L 1911 3653 L 1911 3652 L 1912 3651 L 1912 3650 L 1913 3649 L 1913 3647 L 1914 3646 L 1914 3645 L 1915 3644 L 1915 3642 L 1916 3641 L 1916 3640 L 1917 3639 L 1917 3637 L 1918 3636 L 1918 3634 L 1919 3633 L 1919 3632 L 1920 3631 L 1920 3629 L 1921 3628 L 1921 3627 L 1922 3626 L 1922 3624 L 1923 3623 L 1923 3621 L 1924 3620 L 1924 3619 L 1925 3618 L 1925 3616 L 1926 3615 L 1926 3613 L 1927 3612 L 1927 3611 L 1928 3610 L 1928 3608 L 1929 3607 L 1929 3605 L 1930 3604 L 1930 3602 L 1931 3601 L 1931 3599 L 1932 3598 L 1928 3602 L 1927 3602 L 1910 3619 L 1909 3619 L 1902 3626 L 1901 3626 L 1896 3631 L 1895 3631 L 1890 3636 L 1889 3636 L 1885 3640 L 1884 3640 L 1881 3643 L 1880 3643 L 1876 3647 L 1875 3647 L 1872 3650 L 1871 3650 L 1868 3653 L 1867 3653 L 1865 3655 L 1864 3655 L 1861 3658 L 1860 3658 L 1857 3661 L 1856 3661 L 1854 3663 L 1853 3663 L 1850 3666 L 1849 3666 L 1847 3668 L 1846 3668 L 1844 3670 L 1843 3670 L 1841 3672 L 1840 3672 L 1837 3675 L 1836 3675 L 1834 3677 L 1833 3677 L 1831 3679 L 1830 3679 L 1828 3681 L 1827 3681 L 1825 3683 L 1824 3683 L 1822 3685 L 1821 3685 L 1819 3687 L 1818 3687 L 1816 3689 L 1815 3689 L 1813 3691 L 1812 3691 L 1810 3693 L 1809 3693 L 1807 3695 L 1806 3695 L 1804 3697 L 1803 3697 L 1802 3698 L 1801 3698 L 1799 3700 L 1798 3700 L 1796 3702 L 1795 3702 L 1793 3704 L 1792 3704 L 1790 3706 L 1789 3706 L 1788 3707 L 1778 3707 L 1777 3706 L 1776 3706 L 1770 3700 L 1770 3699 L 1769 3698 L 1769 3697 L 1768 3696 L 1768 3685 L 1769 3684 L 1769 3683 L 1776 3676 L 1777 3676 L 1779 3674 L 1780 3674 L 1782 3672 L 1783 3672 L 1785 3670 L 1786 3670 L 1788 3668 L 1789 3668 L 1791 3666 L 1792 3666 L 1794 3664 L 1795 3664 L 1797 3662 L 1798 3662 L 1800 3660 L 1801 3660 L 1803 3658 L 1804 3658 L 1806 3656 L 1807 3656 L 1809 3654 L 1810 3654 L 1812 3652 L 1813 3652 L 1816 3649 L 1817 3649 L 1819 3647 L 1820 3647 L 1822 3645 L 1823 3645 L 1826 3642 L 1827 3642 L 1829 3640 L 1830 3640 L 1833 3637 L 1834 3637 L 1836 3635 L 1837 3635 L 1840 3632 L 1841 3632 L 1844 3629 L 1845 3629 L 1848 3626 L 1849 3626 L 1852 3623 L 1853 3623 L 1856 3620 L 1857 3620 L 1861 3616 L 1862 3616 L 1866 3612 L 1867 3612 L 1871 3608 L 1872 3608 L 1877 3603 L 1878 3603 L 1884 3597 L 1885 3597 L 1892 3590 L 1893 3590 L 1906 3577 L 1907 3577 L 1919 3565 L 1919 3564 L 1932 3551 L 1932 3550 L 1939 3543 L 1939 3542 L 1944 3537 L 1944 3536 L 1948 3532 L 1948 3531 L 1951 3528 L 1951 3527 L 1959 3519 L 1960 3519 L 1961 3518 L 1963 3518 L 1964 3517 L 1972 3517 L 1973 3518 L 1975 3518 L 1977 3520 L 1978 3520 L 1981 3523 L 1981 3524 L 1982 3525 L 1982 3526 L 1983 3527 L 1983 3538 L 1982 3539 L 1982 3543 L 1981 3544 L 1981 3547 L 1980 3548 L 1980 3551 L 1979 3552 L 1979 3555 L 1978 3556 L 1978 3558 L 1977 3559 L 1977 3562 L 1976 3563 L 1976 3566 L 1975 3567 L 1975 3569 L 1974 3570 L 1974 3573 L 1973 3574 L 1973 3576 L 1972 3577 L 1972 3579 L 1971 3580 L 1971 3583 L 1970 3584 L 1970 3586 L 1969 3587 L 1969 3589 L 1968 3590 L 1968 3592 L 1967 3593 L 1967 3595 L 1966 3596 L 1966 3598 L 1965 3599 L 1965 3601 L 1964 3602 L 1964 3604 L 1963 3605 L 1963 3607 L 1962 3608 L 1962 3610 L 1961 3611 L 1961 3613 L 1960 3614 L 1960 3615 L 1959 3616 L 1959 3618 L 1958 3619 L 1958 3621 L 1957 3622 L 1957 3624 L 1956 3625 L 1956 3626 L 1955 3627 L 1955 3629 L 1954 3630 L 1954 3632 L 1953 3633 L 1953 3634 L 1952 3635 L 1952 3637 L 1951 3638 L 1951 3640 L 1950 3641 L 1950 3642 L 1949 3643 L 1949 3645 L 1948 3646 L 1948 3647 L 1947 3648 L 1947 3650 L 1946 3651 L 1946 3652 L 1945 3653 L 1945 3655 L 1944 3656 L 1944 3657 L 1943 3658 L 1943 3660 L 1942 3661 L 1942 3662 L 1941 3663 L 1941 3665 L 1940 3666 L 1940 3667 L 1939 3668 L 1939 3669 L 1938 3670 L 1938 3672 L 1937 3673 L 1937 3674 L 1936 3675 L 1936 3677 L 1935 3678 L 1935 3679 L 1934 3680 L 1934 3681 L 1933 3682 L 1933 3684 L 1932 3685 L 1932 3686 L 1931 3687 L 1931 3688 L 1930 3689 L 1930 3691 L 1929 3692 L 1929 3693 L 1928 3694 L 1928 3696 L 1927 3697 L 1927 3698 L 1926 3699 L 1926 3700 L 1925 3701 L 1925 3703 L 1924 3704 L 1924 3705 L 1923 3706 L 1923 3707 L 1922 3708 L 1922 3710 L 1921 3711 L 1921 3712 L 1922 3713 L 1923 3713 L 1925 3715 L 1925 3716 L 1926 3717 L 1926 3724 L 1925 3725 L 1925 3726 L 1923 3728 L 1922 3728 L 1921 3729 L 1913 3729 L 1913 3731 L 1912 3732 L 1912 3733 L 1911 3734 L 1911 3735 L 1910 3736 L 1910 3737 L 1909 3738 L 1909 3740 L 1908 3741 L 1908 3742 L 1907 3743 L 1907 3744 L 1906 3745 L 1906 3747 L 1905 3748 L 1905 3749 L 1904 3750 L 1904 3751 L 1903 3752 L 1903 3754 L 1902 3755 L 1902 3756 L 1901 3757 L 1901 3758 L 1900 3759 L 1900 3761 L 1899 3762 L 1899 3763 L 1898 3764 L 1898 3765 L 1897 3766 L 1897 3767 L 1896 3768 L 1896 3770 L 1895 3771 L 1895 3772 L 1894 3773 L 1894 3774 L 1893 3775 L 1893 3777 L 1892 3778 L 1892 3779 L 1891 3780 L 1891 3781 L 1890 3782 L 1890 3784 L 1889 3785 L 1889 3786 L 1888 3787 L 1888 3788 L 1887 3789 L 1887 3791 L 1886 3792 L 1886 3794 L 1887 3795 L 1887 3796 L 1888 3797 L 1888 3798 L 1891 3801 L 1892 3801 L 1894 3803 L 1895 3803 L 1898 3806 L 1899 3806 L 1901 3808 L 1902 3808 L 1904 3810 L 1905 3810 L 1907 3812 L 1908 3812 L 1910 3814 L 1911 3814 L 1912 3815 L 1913 3815 L 1915 3817 L 1916 3817 L 1917 3818 L 1918 3818 L 1920 3820 L 1921 3820 L 1922 3821 L 1923 3821 L 1924 3822 L 1925 3822 L 1926 3823 L 1927 3823 L 1928 3824 L 1929 3824 L 1930 3825 L 1931 3825 L 1932 3826 L 1933 3826 L 1934 3827 L 1936 3827 L 1937 3828 L 1938 3828 L 1939 3829 L 1940 3829 L 1941 3830 L 1943 3830 L 1944 3831 L 1945 3831 L 1946 3832 L 1947 3832 L 1948 3833 L 1950 3833 L 1951 3834 L 1952 3834 L 1953 3835 L 1955 3835 L 1956 3836 L 1957 3836 L 1958 3837 L 1960 3837 L 1961 3838 L 1962 3838 L 1963 3839 L 1965 3839 L 1966 3840 L 1967 3840 L 1968 3841 L 1970 3841 L 1971 3842 L 1972 3842 L 1973 3843 L 1974 3843 L 1975 3844 L 1977 3844 L 1978 3845 L 1979 3845 L 1980 3846 L 1981 3846 L 1982 3847 L 1983 3847 L 1984 3848 L 1985 3848 L 1986 3849 L 1987 3849 L 1988 3850 L 1989 3850 L 1990 3851 L 1991 3851 L 1992 3852 L 1993 3852 L 1994 3853 L 1995 3853 L 1997 3855 L 1998 3855 L 1999 3856 L 2000 3856 L 2002 3858 L 2003 3858 L 2005 3860 L 2006 3860 L 2010 3864 L 2011 3864 L 2024 3877 L 2024 3878 L 2027 3881 L 2027 3882 L 2029 3884 L 2029 3885 L 2030 3886 L 2030 3887 L 2032 3889 L 2032 3891 L 2033 3892 L 2033 3893 L 2034 3894 L 2034 3896 L 2035 3897 L 2035 3899 L 2036 3900 L 2036 3904 L 2037 3905 L 2037 3923 L 2036 3924 L 2036 3927 L 2035 3928 L 2035 3930 L 2034 3931 L 2034 3932 L 2033 3933 L 2033 3934 L 2032 3935 L 2032 3936 L 2031 3937 L 2031 3938 L 2029 3940 L 2029 3941 L 2018 3952 L 2017 3952 L 2015 3954 L 2014 3954 L 2012 3956 L 2011 3956 L 2010 3957 L 2009 3957 L 2008 3958 L 2007 3958 L 2006 3959 L 2005 3959 L 2004 3960 L 2003 3960 L 2002 3961 L 2001 3961 L 2000 3962 L 1998 3962 L 1997 3963 L 1995 3963 L 1994 3964 L 1993 3964 L 1992 3965 L 1989 3965 L 1988 3966 L 1986 3966 L 1985 3967 L 1982 3967 L 1981 3968 L 1978 3968 L 1977 3969 L 1973 3969 L 1972 3970 L 1967 3970 L 1966 3971 L 1959 3971 L 1958 3972 L 1923 3972 L 1922 3971 L 1915 3971 L 1914 3970 L 1910 3970 L 1909 3969 L 1905 3969 L 1904 3968 L 1901 3968 L 1900 3967 L 1898 3967 L 1897 3966 L 1895 3966 L 1894 3965 L 1893 3965 L 1890 3962 L 1890 3961 L 1889 3960 L 1889 3956 L 1890 3955 L 1890 3953 L 1894 3949 L 1900 3949 L 1901 3950 L 1903 3950 L 1904 3951 L 1907 3951 L 1908 3952 L 1912 3952 L 1913 3953 L 1918 3953 L 1919 3954 L 1929 3954 L 1930 3955 L 1948 3955 L 1949 3954 L 1961 3954 L 1962 3953 L 1968 3953 L 1969 3952 L 1974 3952 L 1975 3951 L 1979 3951 L 1980 3950 L 1983 3950 L 1984 3949 L 1986 3949 L 1987 3948 L 1989 3948 L 1990 3947 L 1992 3947 L 1993 3946 L 1994 3946 L 1995 3945 L 1996 3945 L 1997 3944 L 1998 3944 L 1999 3943 L 2000 3943 L 2001 3942 L 2002 3942 L 2003 3941 L 2004 3941 L 2007 3938 L 2008 3938 L 2015 3931 L 2015 3930 L 2016 3929 L 2016 3928 L 2017 3927 L 2017 3926 L 2018 3925 L 2018 3924 L 2019 3923 L 2019 3920 L 2020 3919 L 2020 3907 L 2019 3906 L 2019 3903 L 2018 3902 L 2018 3900 L 2017 3899 L 2017 3898 L 2016 3897 L 2016 3896 L 2015 3895 L 2015 3894 L 2013 3892 L 2013 3891 L 2011 3889 L 2011 3888 L 2001 3878 L 2000 3878 L 1997 3875 L 1996 3875 L 1994 3873 L 1993 3873 L 1991 3871 L 1990 3871 L 1988 3869 L 1987 3869 L 1986 3868 L 1985 3868 L 1984 3867 L 1983 3867 L 1982 3866 L 1981 3866 L 1980 3865 L 1979 3865 L 1978 3864 L 1977 3864 L 1976 3863 L 1975 3863 L 1974 3862 L 1973 3862 L 1972 3861 L 1971 3861 L 1970 3860 L 1969 3860 L 1968 3859 L 1966 3859 L 1965 3858 L 1964 3858 L 1963 3857 L 1962 3857 L 1961 3856 L 1960 3856 L 1959 3855 L 1957 3855 L 1956 3854 L 1955 3854 L 1954 3853 L 1953 3853 L 1952 3852 L 1950 3852 L 1949 3851 L 1948 3851 L 1947 3850 L 1945 3850 L 1944 3849 L 1943 3849 L 1942 3848 L 1940 3848 L 1939 3847 L 1938 3847 L 1937 3846 L 1935 3846 L 1934 3845 L 1933 3845 L 1932 3844 L 1931 3844 L 1930 3843 L 1928 3843 L 1927 3842 L 1926 3842 L 1925 3841 L 1924 3841 L 1923 3840 L 1922 3840 L 1921 3839 L 1920 3839 L 1919 3838 L 1918 3838 L 1917 3837 L 1916 3837 L 1915 3836 L 1914 3836 L 1913 3835 L 1912 3835 L 1911 3834 L 1910 3834 L 1909 3833 L 1908 3833 L 1906 3831 L 1908 3833 L 1908 3834 L 1909 3835 L 1909 3836 L 1910 3837 L 1910 3838 L 1911 3839 L 1911 3840 L 1912 3841 L 1912 3842 L 1913 3843 L 1913 3844 L 1914 3845 L 1914 3846 L 1915 3847 L 1915 3848 L 1917 3850 L 1917 3851 L 1918 3852 L 1918 3853 L 1919 3854 L 1919 3855 L 1920 3856 L 1920 3857 L 1921 3858 L 1921 3859 L 1922 3860 L 1922 3861 L 1923 3862 L 1923 3863 L 1924 3864 L 1924 3865 L 1925 3866 L 1925 3867 L 1926 3868 L 1926 3869 L 1927 3870 L 1927 3871 L 1928 3872 L 1928 3873 L 1929 3874 L 1929 3876 L 1930 3877 L 1930 3878 L 1931 3879 L 1931 3880 L 1932 3881 L 1932 3882 L 1933 3883 L 1933 3884 L 1934 3885 L 1934 3886 L 1935 3887 L 1935 3889 L 1936 3890 L 1936 3891 L 1937 3892 L 1937 3893 L 1938 3894 L 1938 3895 L 1939 3896 L 1939 3898 L 1940 3899 L 1940 3900 L 1941 3901 L 1941 3902 L 1942 3903 L 1942 3905 L 1943 3906 L 1943 3907 L 1944 3908 L 1944 3910 L 1945 3911 L 1945 3912 L 1946 3913 L 1946 3915 L 1947 3916 L 1947 3918 L 1948 3919 L 1948 3920 L 1949 3921 L 1949 3923 L 1950 3924 L 1950 3926 L 1951 3927 L 1951 3929 L 1952 3930 L 1952 3936 L 1949 3939 L 1948 3939 L 1947 3940 L 1940 3940 L 1939 3939 L 1938 3939 L 1936 3937 L 1936 3936 L 1935 3935 L 1935 3933 L 1934 3932 L 1934 3930 L 1933 3929 L 1933 3928 L 1932 3927 L 1932 3925 L 1931 3924 L 1931 3922 L 1930 3921 L 1930 3920 L 1929 3919 L 1929 3917 L 1928 3916 L 1928 3915 L 1927 3914 L 1927 3913 L 1926 3912 L 1926 3910 L 1925 3909 L 1925 3908 L 1924 3907 L 1924 3906 L 1923 3905 L 1923 3904 L 1922 3903 L 1922 3901 L 1921 3900 L 1921 3899 L 1920 3898 L 1920 3897 L 1919 3896 L 1919 3895 L 1918 3894 L 1918 3893 L 1917 3892 L 1917 3891 L 1916 3890 L 1916 3889 L 1915 3888 L 1915 3887 L 1914 3886 L 1914 3885 L 1913 3884 L 1913 3883 L 1912 3882 L 1912 3881 L 1911 3880 L 1911 3879 L 1910 3878 L 1910 3877 L 1909 3876 L 1909 3875 L 1908 3874 L 1908 3873 L 1907 3872 L 1907 3871 L 1906 3870 L 1906 3869 L 1905 3868 L 1905 3867 L 1904 3866 L 1904 3865 L 1903 3864 L 1903 3863 L 1902 3862 L 1902 3861 L 1901 3860 L 1901 3859 L 1900 3858 L 1900 3857 L 1898 3855 L 1898 3854 L 1897 3853 L 1897 3852 L 1896 3851 L 1896 3850 L 1895 3849 L 1895 3848 L 1894 3847 L 1894 3846 L 1893 3845 L 1893 3844 L 1892 3843 L 1892 3842 L 1891 3841 L 1891 3840 L 1890 3839 L 1890 3838 L 1889 3837 L 1889 3836 L 1888 3835 L 1888 3834 L 1887 3833 L 1887 3832 L 1886 3831 L 1886 3830 L 1885 3829 L 1885 3828 L 1884 3827 L 1884 3826 L 1883 3825 L 1883 3824 L 1882 3823 L 1882 3822 L 1881 3821 L 1881 3820 L 1880 3819 L 1880 3818 L 1879 3817 L 1879 3816 L 1877 3814 L 1877 3813 L 1877 3814 L 1876 3815 L 1876 3816 L 1875 3817 L 1875 3818 L 1874 3819 L 1874 3821 L 1873 3822 L 1873 3823 L 1872 3824 L 1872 3825 L 1871 3826 L 1871 3828 L 1870 3829 L 1870 3830 L 1869 3831 L 1869 3832 L 1868 3833 L 1868 3835 L 1867 3836 L 1867 3837 L 1866 3838 L 1866 3840 L 1865 3841 L 1865 3842 L 1864 3843 L 1864 3844 L 1863 3845 L 1863 3847 L 1862 3848 L 1862 3849 L 1861 3850 L 1861 3851 L 1860 3852 L 1860 3854 L 1859 3855 L 1859 3856 L 1858 3857 L 1858 3858 L 1857 3859 L 1857 3861 L 1856 3862 L 1856 3863 L 1855 3864 L 1855 3866 L 1854 3867 L 1854 3868 L 1853 3869 L 1853 3870 L 1852 3871 L 1852 3873 L 1851 3874 L 1851 3875 L 1850 3876 L 1850 3878 L 1849 3879 L 1849 3880 L 1848 3881 L 1848 3883 L 1847 3884 L 1847 3885 L 1846 3886 L 1846 3887 L 1845 3888 L 1845 3890 L 1844 3891 L 1844 3892 L 1843 3893 L 1843 3895 L 1842 3896 L 1842 3897 L 1841 3898 L 1842 3899 L 1843 3899 L 1849 3905 L 1850 3905 L 1860 3915 L 1860 3916 L 1864 3920 L 1864 3921 L 1867 3924 L 1867 3925 L 1868 3926 L 1868 3927 L 1870 3929 L 1870 3930 L 1871 3931 L 1871 3932 L 1872 3933 L 1872 3934 L 1873 3935 L 1873 3942 L 1872 3943 L 1872 3944 L 1869 3947 L 1868 3947 L 1867 3948 L 1862 3948 L 1858 3944 L 1858 3943 L 1857 3942 L 1857 3941 L 1855 3939 L 1855 3938 L 1854 3937 L 1854 3936 L 1852 3934 L 1852 3933 L 1850 3931 L 1850 3930 L 1846 3926 L 1846 3925 L 1837 3916 L 1836 3916 L 1835 3915 L 1834 3916 L 1834 3917 L 1833 3918 L 1833 3920 L 1832 3921 L 1832 3922 L 1831 3923 L 1831 3925 L 1830 3926 L 1830 3927 L 1829 3928 L 1829 3930 L 1828 3931 L 1828 3932 L 1827 3933 L 1827 3935 L 1826 3936 L 1826 3937 L 1825 3938 L 1825 3940 L 1824 3941 L 1824 3942 L 1823 3943 L 1823 3945 L 1822 3946 L 1822 3947 L 1821 3948 L 1821 3949 L 1820 3950 L 1820 3952 L 1819 3953 L 1819 3954 L 1818 3955 L 1818 3957 L 1817 3958 L 1817 3959 L 1816 3960 L 1816 3962 L 1815 3963 L 1815 3964 L 1814 3965 L 1814 3967 L 1813 3968 L 1813 3969 L 1812 3970 L 1812 3972 L 1811 3973 L 1811 3974 L 1810 3975 L 1810 3976 L 1809 3977 L 1809 3979 L 1808 3980 L 1808 3981 L 1807 3982 L 1807 3984 L 1806 3985 L 1806 3986 L 1805 3987 L 1805 3988 L 1804 3989 L 1804 3991 L 1803 3992 L 1803 3993 L 1802 3994 L 1802 3996 L 1801 3997 L 1801 3998 L 1800 3999 L 1800 4000 L 1799 4001 L 1799 4003 L 1798 4004 L 1798 4005 L 1797 4006 L 1797 4007 L 1796 4008 L 1796 4009 L 1795 4010 L 1795 4012 L 1794 4013 L 1794 4014 L 1793 4015 L 1793 4016 L 1792 4017 L 1792 4019 L 1791 4020 L 1791 4021 L 1790 4022 L 1790 4023 L 1789 4024 L 1789 4025 L 1788 4026 L 1788 4028 L 1787 4029 L 1787 4030 L 1786 4031 L 1786 4032 L 1785 4033 L 1785 4034 L 1784 4035 L 1784 4036 L 1783 4037 L 1783 4039 L 1782 4040 L 1782 4041 L 1781 4042 L 1781 4043 L 1780 4044 L 1780 4045 L 1779 4046 L 1779 4047 L 1778 4048 L 1778 4049 L 1777 4050 L 1777 4051 L 1776 4052 L 1776 4054 L 1775 4055 L 1775 4056 L 1774 4057 L 1774 4058 L 1773 4059 L 1773 4060 L 1772 4061 L 1772 4062 L 1771 4063 L 1771 4064 L 1770 4065 L 1770 4066 L 1769 4067 L 1769 4068 L 1768 4069 L 1768 4070 L 1767 4071 L 1767 4072 L 1766 4073 L 1766 4074 L 1765 4075 L 1765 4076 L 1764 4077 L 1764 4078 L 1763 4079 L 1763 4080 L 1762 4081 L 1762 4082 L 1761 4083 L 1761 4084 L 1760 4085 L 1760 4086 L 1759 4087 L 1759 4088 L 1758 4089 L 1758 4090 L 1757 4091 L 1757 4092 L 1755 4094 L 1755 4095 L 1754 4096 L 1754 4097 L 1753 4098 L 1753 4099 L 1752 4100 L 1752 4101 L 1751 4102 L 1751 4103 L 1750 4104 L 1750 4105 L 1748 4107 L 1748 4108 L 1747 4109 L 1747 4110 L 1746 4111 L 1746 4112 L 1744 4114 L 1744 4115 L 1743 4116 L 1743 4117 L 1742 4118 L 1742 4119 L 1740 4121 L 1740 4122 L 1739 4123 L 1739 4124 L 1738 4125 L 1738 4126 L 1736 4128 L 1736 4129 L 1735 4130 L 1735 4131 L 1733 4133 L 1733 4134 L 1728 4139 L 1727 4139 L 1726 4140 L 1725 4140 L 3554 4140 L 3554 2074 L 3419 2074 L 3417 2072 L 3417 2071 L 3416 2070 L 3416 2069 L 3415 2068 L 3415 2066 L 3414 2065 L 3414 2064 L 3413 2063 L 3413 2062 L 3412 2061 L 3412 2059 L 3411 2058 L 3411 2057 L 3410 2056 L 3410 2055 L 3409 2054 L 3409 2053 L 3408 2052 L 3408 2050 L 3407 2049 L 3407 2048 L 3406 2047 L 3406 2046 L 3405 2045 L 3405 2043 L 3404 2042 L 3404 2041 L 3403 2040 L 3403 2039 L 3402 2038 L 3402 2037 L 3401 2036 L 3401 2034 L 3400 2033 L 3400 2032 L 3399 2031 L 3399 2030 L 3398 2029 L 3398 2027 L 3397 2026 L 3397 2025 L 3396 2024 L 3396 2023 L 3395 2022 L 3395 2021 L 3394 2020 L 3394 2018 L 3393 2017 L 3393 2016 L 3392 2015 L 3392 2014 L 3391 2013 L 3391 2011 L 3390 2010 L 3390 2009 L 3389 2008 L 3389 2007 L 3388 2006 L 3388 2005 L 3387 2004 L 3387 2002 L 3386 2001 L 3386 2000 L 3385 1999 L 3385 1998 L 3384 1997 L 3384 1995 L 3383 1994 L 3383 1993 L 3382 1992 L 3382 1991 L 3381 1990 L 3381 1989 L 3380 1988 L 3380 1986 L 3379 1985 L 3379 1984 L 3378 1983 L 3378 1982 L 3377 1981 L 3377 1979 L 3376 1978 L 3376 1977 L 3375 1976 L 3375 1975 L 3374 1974 L 3374 1973 L 3373 1972 L 3373 1970 L 3372 1969 L 3372 1968 L 3371 1967 L 3371 1966 L 3370 1965 L 3370 1963 L 3369 1962 L 3369 1961 L 3368 1960 L 3368 1959 L 3367 1958 L 3367 1957 L 3366 1956 L 3366 1954 L 3365 1953 L 3365 1952 L 3364 1951 L 3364 1950 L 3363 1949 L 3363 1947 L 3362 1946 L 3362 1945 L 3361 1944 L 3361 1943 L 3360 1942 L 3360 1941 L 3359 1940 L 3359 1938 L 3358 1937 L 3358 1936 L 3357 1935 L 3357 1934 L 3356 1933 L 3356 1931 L 3355 1930 L 3355 1929 L 3354 1928 L 3354 1927 L 3353 1926 L 3353 1925 L 3352 1924 L 3352 1922 L 3351 1921 L 3351 1920 L 3350 1919 L 3350 1918 L 3349 1917 L 3349 1915 L 3348 1914 L 3348 1913 L 3347 1912 L 3347 1911 L 3346 1910 L 3346 1909 L 3345 1908 L 3345 1906 L 3344 1905 L 3344 1904 L 3343 1903 L 3343 1902 L 3342 1901 L 3342 1899 L 3341 1898 L 3341 1897 L 3340 1896 L 3340 1895 L 3339 1894 L 3339 1893 L 3338 1892 L 3338 1890 L 3337 1889 L 3337 1888 L 3336 1887 L 3336 1886 L 3335 1885 L 3335 1883 L 3334 1882 L 3334 1881 L 3333 1880 L 3333 1879 L 3332 1878 L 3332 1877 L 3331 1876 L 3331 1874 L 3330 1873 L 3330 1872 L 3329 1871 L 3329 1870 L 3328 1869 L 3328 1867 L 3327 1866 L 3327 1865 L 3326 1864 L 3326 1863 L 3325 1862 L 3325 1861 L 3324 1860 L 3324 1858 L 3323 1857 L 3323 1856 L 3322 1855 L 3322 1854 L 3321 1853 L 3321 1851 L 3320 1850 L 3320 1849 L 3319 1848 L 3319 1847 L 3318 1846 L 3318 1845 L 3317 1844 L 3317 1842 L 3316 1841 L 3316 1840 L 3315 1839 L 3315 1838 L 3314 1837 L 3314 1835 L 3313 1834 L 3313 1833 L 3312 1833 L 3312 1834 L 3311 1835 L 3311 1836 L 3310 1837 L 3310 1838 L 3309 1839 L 3309 1840 L 3308 1841 L 3308 1842 L 3307 1843 L 3307 1844 L 3306 1845 L 3306 1846 L 3305 1847 L 3305 1848 L 3304 1849 L 3304 1850 L 3303 1851 L 3303 1852 L 3302 1853 L 3302 1854 L 3301 1855 L 3301 1856 L 3300 1857 L 3300 1858 L 3299 1859 L 3299 1860 L 3298 1861 L 3298 1862 L 3297 1863 L 3297 1864 L 3296 1865 L 3296 1866 L 3295 1867 L 3295 1868 L 3294 1869 L 3294 1870 L 3293 1871 L 3293 1872 L 3292 1873 L 3292 1874 L 3291 1875 L 3291 1876 L 3290 1877 L 3290 1878 L 3289 1879 L 3289 1880 L 3288 1881 L 3288 1882 L 3287 1883 L 3287 1884 L 3286 1885 L 3286 1886 L 3285 1887 L 3285 1888 L 3284 1889 L 3284 1890 L 3283 1891 L 3283 1892 L 3282 1893 L 3282 1894 L 3281 1895 L 3281 1896 L 3280 1897 L 3280 1898 L 3279 1899 L 3279 1900 L 3278 1901 L 3278 1902 L 3277 1903 L 3277 1904 L 3276 1905 L 3276 1906 L 3275 1907 L 3275 1908 L 3274 1909 L 3274 1910 L 3273 1911 L 3273 1912 L 3272 1913 L 3272 1914 L 3271 1915 L 3271 1916 L 3270 1917 L 3270 1918 L 3269 1919 L 3269 1920 L 3268 1921 L 3268 1922 L 3267 1923 L 3267 1924 L 3266 1925 L 3266 1926 L 3265 1927 L 3265 1928 L 3264 1929 L 3264 1930 L 3263 1931 L 3263 1932 L 3262 1933 L 3262 1934 L 3261 1935 L 3261 1936 L 3260 1937 L 3260 1938 L 3259 1939 L 3259 1940 L 3258 1941 L 3258 1942 L 3257 1943 L 3257 1944 L 3256 1945 L 3256 1946 L 3255 1947 L 3255 1948 L 3254 1949 L 3254 1950 L 3253 1951 L 3253 1952 L 3252 1953 L 3252 2073 L 3251 2074 L 3147 2074 L 3146 2073 L 3146 1346 L 3147 1345 L 3251 1345 L 3252 1346 L 3252 1679 L 3252 1678 L 3253 1677 L 3253 1676 L 3254 1675 L 3254 1674 L 3255 1673 L 3255 1672 L 3256 1671 L 3256 1670 L 3257 1669 L 3257 1668 L 3258 1667 L 3258 1666 L 3259 1665 L 3259 1664 L 3260 1663 L 3260 1662 L 3261 1661 L 3261 1660 L 3262 1659 L 3262 1657 L 3263 1656 L 3263 1655 L 3264 1654 L 3264 1653 L 3265 1652 L 3265 1651 L 3266 1650 L 3266 1649 L 3267 1648 L 3267 1647 L 3268 1646 L 3268 1645 L 3269 1644 L 3269 1643 L 3270 1642 L 3270 1641 L 3271 1640 L 3271 1639 L 3272 1638 L 3272 1637 L 3273 1636 L 3273 1635 L 3274 1634 L 3274 1633 L 3275 1632 L 3275 1631 L 3276 1630 L 3276 1629 L 3277 1628 L 3277 1627 L 3278 1626 L 3278 1625 L 3279 1624 L 3279 1623 L 3280 1622 L 3280 1621 L 3281 1620 L 3281 1619 L 3282 1618 L 3282 1617 L 3283 1616 L 3283 1615 L 3284 1614 L 3284 1613 L 3285 1612 L 3285 1611 L 3286 1610 L 3286 1609 L 3287 1608 L 3287 1607 L 3288 1606 L 3288 1605 L 3289 1604 L 3289 1603 L 3290 1602 L 3290 1601 L 3291 1600 L 3291 1599 L 3292 1598 L 3292 1597 L 3293 1596 L 3293 1595 L 3294 1594 L 3294 1593 L 3295 1592 L 3295 1591 L 3296 1590 L 3296 1589 L 3297 1588 L 3297 1587 L 3298 1586 L 3298 1585 L 3299 1584 L 3299 1583 L 3300 1582 L 3300 1581 L 3301 1580 L 3301 1579 L 3302 1578 L 3302 1577 L 3303 1576 L 3303 1575 L 3304 1574 L 3304 1573 L 3305 1572 L 3305 1571 L 3306 1570 L 3306 1569 L 3307 1568 L 3307 1567 L 3308 1566 L 3308 1565 L 3309 1564 L 3309 1563 L 3310 1562 L 3310 1561 L 3311 1560 L 3311 1559 L 3312 1558 L 3312 1557 L 3313 1556 L 3313 1555 L 3314 1554 L 3314 1553 L 3315 1552 L 3315 1551 L 3316 1550 L 3316 1549 L 3317 1548 L 3317 1547 L 3318 1546 L 3318 1545 L 3319 1544 L 3319 1543 L 3320 1542 L 3320 1541 L 3321 1540 L 3321 1539 L 3322 1538 L 3322 1537 L 3323 1536 L 3323 1535 L 3324 1534 L 3324 1533 L 3325 1532 L 3325 1530 L 3326 1529 L 3326 1528 L 3327 1527 L 3327 1526 L 3328 1525 L 3328 1524 L 3329 1523 L 3329 1522 L 3330 1521 L 3330 1520 L 3331 1519 L 3331 1518 L 3332 1517 L 3332 1516 L 3333 1515 L 3333 1514 L 3334 1513 L 3334 1512 L 3335 1511 L 3335 1510 L 3336 1509 L 3336 1508 L 3337 1507 L 3337 1506 L 3338 1505 L 3338 1504 L 3339 1503 L 3339 1502 L 3340 1501 L 3340 1500 L 3341 1499 L 3341 1498 L 3342 1497 L 3342 1496 L 3343 1495 L 3343 1494 L 3344 1493 L 3344 1492 L 3345 1491 L 3345 1490 L 3346 1489 L 3346 1488 L 3347 1487 L 3347 1486 L 3348 1485 L 3348 1484 L 3349 1483 L 3349 1482 L 3350 1481 L 3350 1480 L 3351 1479 L 3351 1478 L 3352 1477 L 3352 1476 L 3353 1475 L 3353 1474 L 3354 1473 L 3354 1472 L 3355 1471 L 3355 1470 L 3356 1469 L 3356 1468 L 3357 1467 L 3357 1466 L 3358 1465 L 3358 1464 L 3359 1463 L 3359 1462 L 3360 1461 L 3360 1460 L 3361 1459 L 3361 1458 L 3362 1457 L 3362 1456 L 3363 1455 L 3363 1454 L 3364 1453 L 3364 1452 L 3365 1451 L 3365 1450 L 3366 1449 L 3366 1448 L 3367 1447 L 3367 1446 L 3368 1445 L 3368 1444 L 3369 1443 L 3369 1442 L 3370 1441 L 3370 1440 L 3371 1439 L 3371 1438 L 3372 1437 L 3372 1436 L 3373 1435 L 3373 1434 L 3374 1433 L 3374 1432 L 3375 1431 L 3375 1430 L 3376 1429 L 3376 1428 L 3377 1427 L 3377 1426 L 3378 1425 L 3378 1424 L 3379 1423 L 3379 1422 L 3380 1421 L 3380 1420 L 3381 1419 L 3381 1418 L 3382 1417 L 3382 1416 L 3383 1415 L 3383 1414 L 3384 1413 L 3384 1412 L 3385 1411 L 3385 1410 L 3386 1409 L 3386 1408 L 3387 1407 L 3387 1405 L 3388 1404 L 3388 1403 L 3389 1402 L 3389 1401 L 3390 1400 L 3390 1399 L 3391 1398 L 3391 1397 L 3392 1396 L 3392 1395 L 3393 1394 L 3393 1393 L 3394 1392 L 3394 1391 L 3395 1390 L 3395 1389 L 3396 1388 L 3396 1387 L 3397 1386 L 3397 1385 L 3398 1384 L 3398 1383 L 3399 1382 L 3399 1381 L 3400 1380 L 3400 1379 L 3401 1378 L 3401 1377 L 3402 1376 L 3402 1375 L 3403 1374 L 3403 1373 L 3404 1372 L 3404 1371 L 3405 1370 L 3405 1369 L 3406 1368 L 3406 1367 L 3407 1366 L 3407 1365 L 3408 1364 L 3408 1363 L 3409 1362 L 3409 1361 L 3410 1360 L 3410 1359 L 3411 1358 L 3411 1357 L 3412 1356 L 3412 1355 L 3413 1354 L 3413 1353 L 3414 1352 L 3414 1351 L 3415 1350 L 3415 1349 L 3416 1348 L 3416 1347 L 3418 1345 L 3554 1345 L 3554 0 L 978 0 L 984 0 L 985 1 L 989 1 L 990 2 L 993 2 L 994 3 L 997 3 L 998 4 L 1000 4 L 1001 5 L 1003 5 L 1004 6 L 1006 6 L 1007 7 L 1008 7 L 1009 8 L 1011 8 L 1012 9 L 1013 9 L 1014 10 L 1015 10 L 1016 11 L 1017 11 L 1018 12 L 1019 12 L 1020 13 L 1021 13 L 1022 14 L 1023 14 L 1024 15 L 1025 15 L 1027 17 L 1028 17 L 1030 19 L 1031 19 L 1033 21 L 1034 21 L 1037 24 L 1038 24 L 1043 29 L 1044 29 L 1058 43 L 1058 44 L 1063 49 L 1063 50 L 1066 53 L 1066 54 L 1069 57 L 1069 58 L 1071 60 L 1071 61 L 1073 63 L 1073 64 L 1075 66 L 1075 67 L 1076 68 L 1076 69 L 1078 71 L 1078 72 L 1079 73 L 1079 74 L 1081 76 L 1081 77 L 1082 78 L 1082 79 L 1083 80 L 1083 81 L 1084 82 L 1084 83 L 1085 84 L 1085 85 L 1086 86 L 1086 87 L 1087 88 L 1087 89 L 1088 90 L 1088 91 L 1089 92 L 1089 93 L 1090 94 L 1090 96 L 1091 97 L 1091 98 L 1092 99 L 1092 100 L 1093 101 L 1093 102 L 1094 103 L 1094 105 L 1095 106 L 1095 107 L 1096 108 L 1096 110 L 1097 111 L 1097 112 L 1098 113 L 1098 115 L 1099 116 L 1099 118 L 1100 119 L 1100 121 L 1101 122 L 1101 124 L 1102 125 L 1102 126 L 1103 127 L 1103 129 L 1104 130 L 1104 133 L 1105 134 L 1105 136 L 1106 137 L 1106 139 L 1107 140 L 1107 142 L 1108 143 L 1108 146 L 1109 147 L 1109 149 L 1110 150 L 1110 153 L 1111 154 L 1111 157 L 1112 158 L 1112 161 L 1113 162 L 1113 165 L 1114 166 L 1114 169 L 1115 170 L 1115 173 L 1116 174 L 1116 178 L 1117 179 L 1117 182 L 1118 183 L 1118 187 L 1119 188 L 1119 192 L 1120 193 L 1120 197 L 1121 198 L 1121 203 L 1122 204 L 1122 209 L 1123 210 L 1123 215 L 1124 216 L 1124 221 L 1125 222 L 1125 228 L 1126 229 L 1126 236 L 1127 237 L 1127 244 L 1128 245 L 1128 252 L 1129 253 L 1129 262 L 1130 263 L 1130 273 L 1131 274 L 1131 285 L 1132 286 L 1132 300 L 1133 301 L 1133 319 L 1134 320 L 1134 353 L 1135 354 L 1135 402 L 1134 403 L 1134 436 L 1133 437 L 1133 455 L 1132 456 L 1132 470 L 1131 471 L 1131 482 L 1130 483 L 1130 493 L 1129 494 L 1129 503 L 1128 504 L 1128 512 L 1127 513 L 1127 520 L 1126 521 L 1126 527 L 1125 528 L 1125 534 L 1124 535 L 1124 540 L 1123 541 L 1123 547 L 1122 548 L 1122 552 L 1121 553 L 1121 558 L 1120 559 L 1120 563 L 1119 564 L 1119 568 L 1118 569 L 1118 573 L 1117 574 L 1117 578 L 1116 579 L 1116 582 L 1115 583 L 1115 587 L 1114 588 L 1114 591 L 1113 592 L 1113 595 L 1112 596 L 1112 599 L 1111 600 L 1111 602 L 1110 603 L 1110 606 L 1109 607 L 1109 610 L 1108 611 L 1108 613 L 1107 614 L 1107 616 L 1106 617 L 1106 620 L 1105 621 L 1105 623 L 1104 624 L 1104 626 L 1103 627 L 1103 629 L 1102 630 L 1102 632 L 1101 633 L 1101 635 L 1100 636 L 1100 638 L 1099 639 L 1099 640 L 1098 641 L 1098 643 L 1097 644 L 1097 646 L 1096 647 L 1096 648 L 1095 649 L 1095 651 L 1094 652 L 1094 653 L 1093 654 L 1093 655 L 1092 656 L 1092 658 L 1091 659 L 1091 660 L 1090 661 L 1090 662 L 1089 663 L 1089 664 L 1088 665 L 1088 666 L 1087 667 L 1087 668 L 1086 669 L 1086 670 L 1085 671 L 1085 672 L 1084 673 L 1084 674 L 1083 675 L 1083 676 L 1082 677 L 1082 678 L 1081 679 L 1081 680 L 1080 681 L 1080 682 L 1078 684 L 1078 685 L 1077 686 L 1077 687 L 1075 689 L 1075 690 L 1074 691 L 1074 692 L 1072 694 L 1072 695 L 1070 697 L 1070 698 L 1067 701 L 1067 702 L 1064 705 L 1064 706 L 1060 710 L 1060 711 L 1041 730 L 1040 730 L 1036 734 L 1035 734 L 1033 736 L 1032 736 L 1030 738 L 1029 738 L 1027 740 L 1026 740 L 1024 742 L 1023 742 L 1022 743 L 1021 743 L 1020 744 L 1019 744 L 1018 745 L 1017 745 L 1016 746 L 1015 746 L 1014 747 L 1013 747 L 1012 748 L 1010 748 L 1009 749 L 1008 749 L 1007 750 L 1005 750 L 1004 751 L 1002 751 L 1001 752 L 999 752 L 998 753 L 996 753 L 995 754 L 992 754 L 991 755 L 987 755 L 986 756 L 981 756 L 980 757 L 971 757 L 970 758 L 950 758 L 949 757 L 940 757 L 939 756 L 934 756 L 933 755 L 930 755 L 929 754 L 926 754 L 925 753 L 922 753 L 921 752 L 919 752 L 918 751 L 916 751 L 915 750 L 913 750 L 912 749 L 911 749 L 910 748 L 909 748 L 908 747 L 906 747 L 905 746 L 904 746 L 903 745 L 902 745 L 901 744 L 900 744 L 899 743 L 898 743 L 896 741 L 895 741 L 894 740 L 893 740 L 891 738 L 890 738 L 888 736 L 887 736 L 884 733 L 883 733 L 879 729 L 878 729 L 861 712 L 861 711 L 857 707 L 857 706 L 854 703 L 854 702 L 851 699 L 851 698 L 849 696 L 849 695 L 847 693 L 847 692 L 845 690 L 845 689 L 844 688 L 844 687 L 842 685 L 842 684 L 841 683 L 841 682 L 840 681 L 840 680 L 838 678 L 838 677 L 837 676 L 837 675 L 836 674 L 836 673 L 835 672 L 835 671 L 834 670 L 834 669 L 833 668 L 833 667 L 832 666 L 832 665 L 831 664 L 831 663 L 830 662 L 830 660 L 829 659 L 829 658 L 828 657 L 828 656 L 827 655 L 827 653 L 826 652 L 826 651 L 825 650 L 825 648 L 824 647 L 824 646 L 823 645 L 823 643 L 822 642 L 822 641 L 821 640 L 821 638 L 820 637 L 820 635 L 819 634 L 819 632 L 818 631 L 818 629 L 817 628 L 817 626 L 816 625 L 816 623 L 815 622 L 815 620 L 814 619 L 814 617 L 813 616 L 813 613 L 812 612 L 812 610 L 811 609 L 811 606 L 810 605 L 810 603 L 809 602 L 809 599 L 808 598 L 808 595 L 807 594 L 807 591 L 806 590 L 806 587 L 805 586 L 805 582 L 804 581 L 804 578 L 803 577 L 803 573 L 802 572 L 802 568 L 801 567 L 801 563 L 800 562 L 800 558 L 799 557 L 799 552 L 798 551 L 798 546 L 797 545 L 797 540 L 796 539 L 796 533 L 795 532 L 795 526 L 794 525 L 794 519 L 793 518 L 793 511 L 792 510 L 792 502 L 791 501 L 791 492 L 790 491 L 790 481 L 789 480 L 789 468 L 788 467 L 788 452 L 787 451 L 787 431 L 786 430 L 786 326 L 787 325 L 787 305 L 788 304 L 788 289 L 789 288 L 789 277 L 790 276 L 790 265 L 791 264 L 791 256 L 792 255 L 792 247 L 793 246 L 793 238 L 794 237 L 794 231 L 795 230 L 795 224 L 796 223 L 796 217 L 797 216 L 797 211 L 798 210 L 798 205 L 799 204 L 799 200 L 800 199 L 800 194 L 801 193 L 801 189 L 802 188 L 802 184 L 803 183 L 803 180 L 804 179 L 804 175 L 805 174 L 805 171 L 806 170 L 806 167 L 807 166 L 807 162 L 808 161 L 808 159 L 809 158 L 809 155 L 810 154 L 810 151 L 811 150 L 811 148 L 812 147 L 812 144 L 813 143 L 813 141 L 814 140 L 814 137 L 815 136 L 815 134 L 816 133 L 816 131 L 817 130 L 817 128 L 818 127 L 818 125 L 819 124 L 819 122 L 820 121 L 820 120 L 821 119 L 821 117 L 822 116 L 822 114 L 823 113 L 823 111 L 824 110 L 824 109 L 825 108 L 825 106 L 826 105 L 826 104 L 827 103 L 827 102 L 828 101 L 828 99 L 829 98 L 829 97 L 830 96 L 830 95 L 831 94 L 831 93 L 832 92 L 832 91 L 833 90 L 833 88 L 834 87 L 834 86 L 835 85 L 835 84 L 837 82 L 837 81 L 838 80 L 838 79 L 839 78 L 839 77 L 840 76 L 840 75 L 841 74 L 841 73 L 843 71 L 843 70 L 844 69 L 844 68 L 846 66 L 846 65 L 848 63 L 848 62 L 850 60 L 850 59 L 852 57 L 852 56 L 855 53 L 855 52 L 858 49 L 858 48 L 864 42 L 864 41 L 875 30 L 876 30 L 881 25 L 882 25 L 885 22 L 886 22 L 889 19 L 890 19 L 892 17 L 893 17 L 894 16 L 895 16 L 897 14 L 898 14 L 899 13 L 900 13 L 901 12 L 902 12 L 903 11 L 904 11 L 905 10 L 906 10 L 907 9 L 908 9 L 909 8 L 911 8 L 912 7 L 913 7 L 914 6 L 916 6 L 917 5 L 919 5 L 920 4 L 922 4 L 923 3 L 926 3 L 927 2 L 930 2 L 931 1 L 936 1 L 937 0 L 943 0 Z "/>
  </g>
</svg>
